<svg xmlns="http://www.w3.org/2000/svg" xmlns:xlink="http://www.w3.org/1999/xlink" width="232" height="54" fill="none" viewBox="0 0 232 54"><g fill="#487254"><path d="M27.523.576C12.878.576.961 12.449.961 27.038c0 6.936 2.695 13.256 7.096 17.977a.65.65 0 0 0 .212.219 26.64 26.64 0 0 0 6.369 4.929c.061.05.13.09.201.115a26.49 26.49 0 0 0 12.687 3.219c4.591 0 8.837-1.147 12.587-3.165a.77.77 0 0 0 .205-.115c4.285-2.355 7.844-5.857 10.273-10.084a.68.68 0 0 0 .137-.237 26.22 26.22 0 0 0 3.361-12.865C54.088 12.449 42.171.576 27.523.576zm0 1.434c13.853 0 25.123 11.227 25.123 25.028a25.32 25.32 0 0 1-.061 1.731c-1.713-.452-5.937-1.71-10.258-4.087-5.721-3.144-7.808-1.771-11.964.968-1.349.889-2.878 1.893-4.872 2.993-3.893 2.147-7.697 3.871-10.996 5.205-.389-3.653-.151-10.948 6.437-16.773.255.76.378 2.843-.086 4.864l-.201.867c-.626 2.685-.86 3.803-.335 4.463.201.255.497.391.831.391.752 0 1.655-1.025 2.127-1.635.716-.932 2.853-4.119 2.191-8.202.644.197 1.677.713 3.048 2.043.615.595 1.195 1.276 1.709 1.882 1 1.176 1.457 1.71 2.094 1.57.309-.068.543-.305.63-.627.126-.466.327-2.85-1.044-5.183-.975-1.66-2.49-2.864-4.512-3.595.529-.351 1.461-.699 3.04-.627 1.688.075 3.163.226 4.239.333 1.742.176 2.105.215 2.443-.09.151-.136.248-.355.248-.559 0-.681-2.184-4.018-8.017-4.029h-.018c-1.454 0-2.569.315-3.397.71.694-1.688 2.011-3.907 4.293-4.678a.72.72 0 0 0 .489-.688.71.71 0 0 0-.507-.674c-1.965-.609-6.228-.867-8.29 2.531-.831 1.369-1.094 2.635-1.13 3.621-.91-.692-2.17-1.495-3.562-1.914-2.99-.903-5.847.183-6.358.828-.209.265-.237.599-.075.875.338.577 1.205.86 2.641 1.337.633.208 1.36.448 2.065.735-1.259-.018-2.695.161-3.98.803-2.727 1.366-3.382 4.23-3.407 4.352a.72.72 0 0 0 .997.807c.054-.025 4.444-1.964 8.164-2.158-3.281 2.463-9.575 8.797-8.488 20.562a85.19 85.19 0 0 1-4.17 1.312A24.78 24.78 0 0 1 2.395 27.05C2.4 13.237 13.67 2.01 27.523 2.01zm-17.34 33.481c-1.162-14.432 9.168-19.794 9.618-20.017.277-.136.432-.434.392-.738s-.273-.548-.576-.606c-3.076-.595-7.218.663-9.478 1.491.407-.674 1.043-1.43 2.019-1.918 2.637-1.323 6.3-.219 6.336-.204a.72.72 0 0 0 .813-.29c.176-.265.155-.617-.054-.86-1.252-1.463-3.541-2.219-5.379-2.825l-.957-.323c.921-.262 2.357-.441 3.875.018 2.346.706 4.375 2.782 4.393 2.8.238.244.615.29.903.108a.72.72 0 0 0 .291-.857c-.007-.018-.712-1.968.752-4.388 1.155-1.903 3.134-2.255 4.634-2.208-3.022 2.298-3.89 6.578-3.929 6.793a.71.71 0 0 0 .428.792c.313.133.676.025.874-.255.047-.068 1.169-1.624 4.174-1.624h.014c2.997.004 4.85 1.018 5.811 1.85l-.338-.036c-1.094-.111-2.591-.262-4.318-.341-4.033-.183-5.023 2.04-5.063 2.137a.71.71 0 0 0 .018.599.73.73 0 0 0 .464.376c4.526 1.154 5.473 4.363 5.635 6.137l-.234-.272c-.507-.595-1.137-1.341-1.803-1.982-3.037-2.939-4.93-2.574-5.138-2.524a.71.71 0 0 0-.446.333c-.097.165-.126.362-.076.548 1.105 4.094-1.202 7.617-2.375 8.718.079-.681.342-1.817.569-2.778l.201-.875c.425-1.853.68-5.829-.659-6.632-.439-.262-.964-.19-1.407.194-7.531 6.503-7.553 14.78-7.078 18.576l-2.925 1.09.014-.007zm-4.937 3.108c.9-.258 2.458-.731 4.48-1.43.04-.011.076-.022.112-.039 1.263-.437 2.699-.964 4.264-1.581a.65.65 0 0 0 .115-.047c3.53-1.394 7.7-3.251 11.968-5.606 2.04-1.126 3.663-2.194 4.965-3.05 3.908-2.57 5.365-3.527 9.715-1.308-.838.505-2.749 1.014-4.001 1.348-2.342.62-4.555 1.208-5.473 2.305-.432.516-.432.979-.353 1.276.227.882 1.292 1.29 2.637 1.814 1.849.717 3.253 1.351 3.073 2.423-.255 1.523-7.006 4.617-15.379 4.345-.392-.057-.831-.093-1.331-.093-.076 0-.151 0-.223.004h-.029c-1.849.047-2.857.57-3.753 1.032-.903.47-1.68.875-3.343.875s-2.44-.405-3.343-.875c-.921-.477-1.965-1.018-3.918-1.032-.065-.118-.126-.24-.187-.358h.004zm22.276 13.468a25.02 25.02 0 0 1-10.78-2.427c.885-.459 1.666-.853 3.3-.853s2.44.405 3.343.875c.936.484 1.993 1.036 4.008 1.036s3.073-.548 4.008-1.036c.903-.47 1.68-.875 3.343-.875s2.44.405 3.343.875c.025.014.05.025.076.039a25.06 25.06 0 0 1-10.643 2.362l.004.004zm12.255-3.194c-.363-.14-.687-.308-1.026-.484-.936-.484-1.993-1.036-4.008-1.036s-3.073.552-4.008 1.036c-.903.47-1.68.875-3.343.875s-2.44-.405-3.343-.875c-.936-.484-1.993-1.036-4.008-1.036s-3.073.548-4.008 1.036c-.291.151-.572.297-.874.423a25.65 25.65 0 0 1-3.483-2.369 9.77 9.77 0 0 0 1.015.05c2.015 0 3.073-.548 4.008-1.036.903-.47 1.68-.875 3.343-.875s2.44.405 3.343.875c.936.484 1.993 1.036 4.008 1.036s3.073-.548 4.008-1.036c.903-.47 1.68-.875 3.343-.875s2.44.405 3.343.875c.935.484 1.993 1.036 4.008 1.036.493 0 .925-.032 1.317-.09a25.08 25.08 0 0 1-3.634 2.466v.004zm6.336-5.022a16.88 16.88 0 0 0-.673.337c-.903.47-1.68.875-3.343.875s-2.44-.405-3.343-.875c-.936-.484-1.993-1.036-4.008-1.036s-3.073.549-4.008 1.036c-.903.47-1.68.875-3.343.875s-2.44-.405-3.343-.875c-.935-.484-1.993-1.036-4.008-1.036s-3.073.549-4.008 1.036c-.903.47-1.68.875-3.343.875s-2.44-.405-3.343-.871l-.198-.1a25.32 25.32 0 0 1-2.832-3.646c1.029.126 1.659.452 2.364.817.936.484 1.993 1.036 4.008 1.036s3.073-.549 4.008-1.036c.853-.444 1.598-.828 3.084-.867a27.4 27.4 0 0 0 1.436.079c.918.143 1.511.448 2.166.789.935.484 1.993 1.036 4.008 1.036s3.073-.549 4.008-1.036c.903-.47 1.68-.875 3.343-.875s2.44.405 3.343.875c.935.484 1.993 1.036 4.008 1.036s3.073-.549 4.008-1.036c.763-.394 1.439-.746 2.634-.846-.777 1.219-1.651 2.373-2.623 3.438l-.004-.004zm3.497-4.9h-.162c-2.015 0-3.073.549-4.008 1.036-.903.47-1.68.875-3.343.875s-2.44-.405-3.343-.875c-.936-.484-1.993-1.036-4.008-1.036s-3.073.549-4.008 1.036c-.903.47-1.68.875-3.343.875-1.144 0-1.871-.194-2.508-.466 6.952-.516 12.882-3.043 13.285-5.459.385-2.308-2.13-3.283-3.972-3.997-.594-.229-1.468-.566-1.724-.806.007-.007.014-.018.022-.029.626-.749 2.81-1.326 4.739-1.839 2.173-.577 4.109-1.09 4.987-2.007a48.21 48.21 0 0 0 10.219 3.957 24.8 24.8 0 0 1-2.832 8.736zM225.22 28.09c-.956 0-1.814-.116-2.575-.35-.76-.214-1.462-.486-2.106-.816l.029-3.469h.293l.994 1.749c.43.777.898 1.36 1.405 1.749.526.369 1.19.554 1.989.554.936 0 1.687-.204 2.253-.612.585-.427.878-.991.878-1.69 0-.641-.205-1.166-.615-1.574s-1.17-.777-2.282-1.108l-1.229-.379c-1.189-.35-2.125-.894-2.808-1.632s-1.024-1.642-1.024-2.711c0-1.282.507-2.371 1.521-3.264s2.468-1.341 4.359-1.341a8.35 8.35 0 0 1 2.136.262 7.89 7.89 0 0 1 1.96.729l-.175 3.148h-.293l-1.024-1.807c-.37-.641-.741-1.088-1.111-1.341-.352-.272-.888-.408-1.61-.408-.663 0-1.287.185-1.872.554s-.878.894-.878 1.574c0 .661.244 1.185.732 1.574.507.389 1.248.748 2.223 1.078l1.317.379c1.404.427 2.409 1.02 3.013 1.778.605.738.907 1.632.907 2.681 0 1.418-.565 2.555-1.697 3.41-1.111.855-2.682 1.282-4.71 1.282zm-9.752-16.409c-.663 0-1.229-.204-1.697-.612a2.12 2.12 0 0 1-.673-1.603c0-.661.224-1.195.673-1.603.468-.408 1.034-.612 1.697-.612s1.219.204 1.668.612.672.942.672 1.603c0 .641-.224 1.176-.672 1.603-.449.408-1.005.612-1.668.612zm-3.452 15.972v-.291l.409-.117c.39-.117.654-.291.79-.525.156-.233.234-.544.234-.933v-9.123c0-.408-.078-.709-.234-.903-.136-.214-.4-.36-.79-.437l-.409-.087v-.292l5.354-1.72.292.291-.088 4.139v8.161c0 .389.069.7.205.933.156.233.42.408.79.525l.293.087v.291h-6.846zm-7.655.437c-.956 0-1.814-.116-2.575-.35-.761-.214-1.463-.486-2.106-.816l.029-3.469h.292l.995 1.749c.429.777.897 1.36 1.404 1.749.527.369 1.19.554 1.99.554.936 0 1.687-.204 2.253-.612.585-.427.877-.991.877-1.69 0-.641-.204-1.166-.614-1.574s-1.17-.777-2.282-1.108l-1.229-.379c-1.19-.35-2.126-.894-2.809-1.632s-1.024-1.642-1.024-2.711c0-1.282.508-2.371 1.522-3.264s2.467-1.341 4.359-1.341a8.35 8.35 0 0 1 2.136.262 7.95 7.95 0 0 1 1.96.729l-.176 3.148h-.292l-1.024-1.807c-.371-.641-.741-1.088-1.112-1.341-.351-.272-.887-.408-1.609-.408-.663 0-1.287.185-1.872.554s-.878.894-.878 1.574c0 .661.244 1.185.731 1.574.507.389 1.249.748 2.224 1.078l1.316.379c1.405.427 2.409 1.02 3.014 1.778.604.738.907 1.632.907 2.681a4.06 4.06 0 0 1-1.697 3.41c-1.112.855-2.682 1.282-4.71 1.282zm-15.931 0c-1.131 0-2.087-.321-2.867-.962-.761-.641-1.141-1.564-1.141-2.769 0-.913.468-1.749 1.404-2.507.936-.777 2.409-1.36 4.418-1.749l1.053-.175 1.229-.233v-2.303c0-1.321-.166-2.244-.497-2.769-.312-.544-.81-.816-1.492-.816-.469 0-.839.155-1.112.466-.273.291-.449.806-.527 1.545l-.058.321c-.039.836-.244 1.448-.615 1.836s-.829.583-1.375.583c-.507 0-.926-.155-1.258-.466s-.497-.729-.497-1.253c0-.797.273-1.467.819-2.011.566-.544 1.307-.952 2.223-1.224s1.912-.408 2.985-.408c1.736 0 3.072.428 4.008 1.282.956.836 1.433 2.205 1.433 4.11v6.441c0 .874.41 1.312 1.229 1.312h.644l.263.233c-.37.466-.78.826-1.229 1.078-.429.253-1.043.379-1.843.379-.858 0-1.541-.194-2.048-.583-.487-.408-.809-.942-.965-1.603-.585.622-1.19 1.156-1.814 1.603-.605.427-1.395.641-2.37.641zm1.785-1.778a2.28 2.28 0 0 0 1.082-.262c.351-.194.761-.486 1.229-.874v-4.897l-.585.117-.673.117c-.897.233-1.619.631-2.165 1.195-.527.544-.79 1.282-.79 2.215 0 .797.185 1.399.556 1.807a1.79 1.79 0 0 0 1.346.583zm-16.437 1.866a9.54 9.54 0 0 1-3.452-.641 9.03 9.03 0 0 1-2.955-1.895c-.858-.855-1.541-1.914-2.048-3.177s-.761-2.74-.761-4.43c0-1.671.254-3.138.761-4.401s1.2-2.312 2.077-3.148a8.82 8.82 0 0 1 2.955-1.924 9.1 9.1 0 0 1 3.423-.67c1.19 0 2.331.214 3.423.641 1.112.408 2.097 1.04 2.955 1.895.878.835 1.57 1.895 2.077 3.177.508 1.263.761 2.74.761 4.43 0 1.652-.253 3.119-.761 4.401-.507 1.263-1.199 2.322-2.077 3.177-.858.835-1.843 1.477-2.955 1.924-1.092.427-2.233.641-3.423.641zm0-.612c1.073 0 1.941-.282 2.604-.845.663-.583 1.141-1.564 1.434-2.944.312-1.399.468-3.313.468-5.742 0-2.448-.156-4.362-.468-5.742-.293-1.399-.771-2.38-1.434-2.944-.663-.583-1.531-.874-2.604-.874-1.053 0-1.911.291-2.574.874-.663.563-1.151 1.545-1.463 2.944-.293 1.38-.439 3.294-.439 5.742 0 2.429.146 4.343.439 5.742.312 1.38.8 2.361 1.463 2.944.663.563 1.521.845 2.574.845zm-32.505.087v-.291l.41-.117c.683-.194 1.024-.67 1.024-1.428v-9.123c0-.427-.068-.738-.205-.933-.136-.214-.4-.359-.79-.437l-.439-.117v-.291l5.003-1.69.293.291.234 1.749c.683-.602 1.453-1.098 2.311-1.486s1.707-.583 2.546-.583c1.287 0 2.272.35 2.954 1.049.703.7 1.054 1.768 1.054 3.206v8.394c0 .758.37 1.234 1.111 1.428l.264.087v.291h-6.905v-.291l.381-.117c.682-.214 1.024-.69 1.024-1.428v-9.298c0-1.244-.625-1.865-1.873-1.865-.858 0-1.794.427-2.809 1.282v9.91c0 .758.342 1.234 1.024 1.428l.264.087v.291h-6.876zm-7.484-14.456c1.268 0 2.35.262 3.247.787.898.505 1.58 1.205 2.048 2.099.488.874.732 1.875.732 3.002l-.03.67a2.52 2.52 0 0 1-.117.583h-8.718c.019 2.099.39 3.614 1.112 4.547.741.913 1.833 1.37 3.276 1.37.976 0 1.766-.155 2.37-.466s1.171-.768 1.697-1.37l.293.262c-.605 1.069-1.414 1.904-2.429 2.507-.994.602-2.194.903-3.598.903-1.385 0-2.614-.291-3.686-.874a6.38 6.38 0 0 1-2.517-2.565c-.605-1.108-.907-2.429-.907-3.964 0-1.593.352-2.944 1.054-4.051.702-1.127 1.599-1.982 2.691-2.565 1.112-.583 2.273-.874 3.482-.874zm-.088.583c-.566 0-1.053.175-1.463.525-.39.33-.702.933-.936 1.807-.214.855-.332 2.069-.351 3.643h5.003c.195-2.118.117-3.643-.234-4.576s-1.024-1.399-2.019-1.399zm-17.85 14.31c-1.151 0-2.184-.253-3.101-.758-.917-.525-1.648-1.321-2.194-2.39-.527-1.088-.79-2.477-.79-4.168 0-1.71.302-3.119.907-4.226.604-1.127 1.404-1.963 2.399-2.507.994-.564 2.077-.845 3.247-.845a9.18 9.18 0 0 1 1.96.204c.624.136 1.18.34 1.668.612v-3.789c0-.408-.068-.709-.205-.904-.117-.194-.38-.33-.79-.408l-.556-.117v-.291l5.325-1.282.322.262-.117 4.081v14.253c0 .389.068.709.205.962.136.233.39.398.76.495l.264.087v.291l-5.003.321-.264-1.049a7.07 7.07 0 0 1-1.814.845c-.663.214-1.404.321-2.223.321zm1.697-1.078a3.8 3.8 0 0 0 2.253-.729V14.712c-.722-.466-1.463-.699-2.224-.699-.936 0-1.736.544-2.399 1.632-.663 1.069-.995 2.759-.995 5.072s.312 3.944.937 4.897c.624.933 1.433 1.399 2.428 1.399zM99.046 28.09c-1.151 0-2.184-.253-3.101-.758-.917-.525-1.648-1.321-2.194-2.39-.527-1.088-.79-2.477-.79-4.168 0-1.71.302-3.119.907-4.226.605-1.127 1.404-1.963 2.399-2.507a6.47 6.47 0 0 1 3.247-.845c.683 0 1.336.068 1.961.204s1.18.34 1.667.612v-3.789c0-.408-.068-.709-.205-.904-.117-.194-.38-.33-.789-.408l-.556-.117v-.291l5.324-1.282.322.262-.117 4.081v14.253c0 .389.068.709.205.962.136.233.39.398.761.495l.263.087v.291l-5.003.321-.263-1.049c-.527.35-1.132.632-1.814.845-.663.214-1.404.321-2.224.321zm1.697-1.078a3.8 3.8 0 0 0 2.253-.729V14.712c-.722-.466-1.463-.699-2.224-.699-.936 0-1.735.544-2.399 1.632-.663 1.069-.995 2.759-.995 5.072s.312 3.944.936 4.897c.624.933 1.434 1.399 2.428 1.399zM88.155 11.681c-.663 0-1.229-.204-1.697-.612a2.12 2.12 0 0 1-.673-1.603c0-.661.224-1.195.673-1.603.468-.408 1.034-.612 1.697-.612s1.219.204 1.668.612.673.942.673 1.603a2.12 2.12 0 0 1-.673 1.603c-.449.408-1.004.612-1.668.612zm-3.452 15.972v-.291l.41-.117c.39-.117.653-.291.79-.525.156-.233.234-.544.234-.933v-9.123c0-.408-.078-.709-.234-.903-.137-.214-.4-.36-.79-.437l-.41-.087v-.292l5.354-1.72.293.291-.088 4.139v8.161c0 .389.068.7.205.933.156.233.419.408.79.525l.293.087v.291h-6.846zm-20.226 0v-.292l.585-.233c.39-.136.644-.321.761-.554.136-.233.205-.534.205-.904V10.428c0-.389-.068-.7-.205-.933-.117-.233-.371-.418-.761-.554l-.585-.233v-.291h7.431v.291l-.497.204c-.371.136-.624.321-.761.554-.136.214-.205.515-.205.904v7.083h6.992V10.37c0-.389-.068-.69-.205-.904-.117-.233-.37-.418-.761-.554l-.527-.204v-.291h7.46v.291l-.585.233c-.371.136-.624.321-.761.554s-.205.544-.205.933v15.244c0 .369.068.67.205.904s.39.418.761.554l.585.233v.292h-7.46v-.292l.527-.175c.39-.155.644-.34.761-.554.137-.233.205-.544.205-.933v-7.665h-6.992V25.7c0 .719.322 1.215.965 1.487l.497.175v.292h-7.431zM222.759 46.84c-.567 0-1.054-.12-1.463-.362a2.43 2.43 0 0 1-.943-1.025c-.222-.44-.33-.96-.33-1.554 0-.587.11-1.103.33-1.551s.531-.797.928-1.047.865-.377 1.399-.377a2.82 2.82 0 0 1 .943.16c.304.107.577.275.819.503s.433.526.573.891.209.804.209 1.323v.395h-4.568v-.835h3.472c0-.293-.06-.553-.179-.779a1.36 1.36 0 0 0-.506-.54 1.41 1.41 0 0 0-.755-.198c-.315 0-.589.077-.824.231a1.55 1.55 0 0 0-.538.596c-.125.244-.188.508-.188.794v.652c0 .383.068.708.203.977a1.46 1.46 0 0 0 .572.615c.244.139.53.209.857.209.212 0 .405-.03.58-.09s.325-.154.453-.276.224-.272.291-.451l1.059.19c-.084.311-.237.583-.456.816a2.21 2.21 0 0 1-.82.541c-.326.127-.699.19-1.118.19zm-3.823-4.443l-1.014.179c-.042-.129-.11-.252-.202-.369a1 1 0 0 0-.367-.287c-.154-.075-.348-.112-.58-.112-.316 0-.581.071-.793.212s-.318.319-.318.541a.57.57 0 0 0 .213.462c.143.117.372.212.689.287l.913.209c.529.122.923.309 1.182.563s.389.583.389.988c0 .343-.099.649-.299.917s-.473.475-.827.626-.759.227-1.223.227c-.644 0-1.169-.137-1.576-.41s-.656-.667-.748-1.174l1.081-.164a1.03 1.03 0 0 0 .416.637c.21.144.482.212.819.212.367 0 .66-.076.879-.227s.33-.342.33-.563c0-.179-.068-.329-.202-.451s-.336-.214-.61-.276l-.973-.212c-.536-.122-.933-.316-1.19-.581s-.382-.603-.382-1.01c0-.338.095-.634.285-.887a1.87 1.87 0 0 1 .785-.593c.334-.142.718-.216 1.149-.216.621 0 1.11.134 1.467.403a1.87 1.87 0 0 1 .707 1.07zm-6.927 4.328v-5.726h1.119v5.726h-1.119zm.565-6.609c-.194 0-.361-.065-.501-.194a.63.63 0 0 1-.206-.47.62.62 0 0 1 .206-.47c.14-.132.307-.198.501-.198a.69.69 0 0 1 .498.198c.14.129.21.286.21.47a.62.62 0 0 1-.21.47.7.7 0 0 1-.498.194zm-5.008 6.721c-.464 0-.878-.118-1.242-.354s-.646-.578-.853-1.018-.307-.973-.307-1.592.104-1.148.311-1.588.496-.777.86-1.01.777-.35 1.239-.35c.356 0 .643.06.86.179s.389.254.509.41a3.73 3.73 0 0 1 .285.414h.067v-2.837h1.119v7.634h-1.093v-.891h-.093c-.068.122-.165.261-.292.417s-.297.293-.517.41-.504.175-.853.175zm.247-.95c.322 0 .594-.084.816-.254s.394-.409.509-.712.176-.656.176-1.059-.058-.746-.172-1.044-.284-.531-.506-.697-.496-.25-.823-.25c-.337 0-.617.087-.842.261s-.394.411-.509.712a2.9 2.9 0 0 0-.168 1.018c0 .383.057.727.172 1.032s.285.548.509.727.506.265.838.265zm-6.73.965c-.365 0-.694-.067-.988-.201a1.66 1.66 0 0 1-.7-.593c-.17-.258-.254-.575-.254-.95 0-.323.062-.589.187-.798a1.37 1.37 0 0 1 .505-.496 2.63 2.63 0 0 1 .711-.276 7.31 7.31 0 0 1 .8-.142l.839-.097c.214-.027.37-.071.467-.131s.146-.157.146-.291v-.026c0-.326-.092-.578-.277-.757s-.454-.268-.815-.268c-.377 0-.674.083-.891.25s-.363.347-.445.548l-1.052-.239c.125-.348.307-.629.547-.843a2.22 2.22 0 0 1 .834-.47 3.27 3.27 0 0 1 .992-.149c.229 0 .472.027.729.082a2.21 2.21 0 0 1 .726.291c.224.142.413.344.558.608s.217.6.217 1.018v3.802h-1.093v-.783h-.045a1.59 1.59 0 0 1-.325.425 1.74 1.74 0 0 1-.558.347 2.17 2.17 0 0 1-.815.138zm.243-.895c.309 0 .574-.061.793-.183s.39-.281.505-.477.176-.411.176-.637v-.738c-.04.04-.117.077-.232.112a3.22 3.22 0 0 1-.385.086l-.423.063-.344.045c-.217.027-.416.073-.595.138a1.02 1.02 0 0 0-.427.279c-.107.121-.157.278-.157.477 0 .276.102.485.307.626s.465.209.782.209zm-5.904.768v-5.726h1.081v.91h.06c.105-.308.289-.55.554-.727a1.59 1.59 0 0 1 .905-.268l.247.008.229.019v1.066c-.045-.012-.125-.026-.24-.041a2.29 2.29 0 0 0-.344-.026 1.46 1.46 0 0 0-.707.168 1.25 1.25 0 0 0-.487.459c-.119.194-.179.415-.179.663v3.496h-1.119zm-4.332.127a2.35 2.35 0 0 1-.987-.201 1.66 1.66 0 0 1-.7-.593c-.17-.258-.255-.575-.255-.95 0-.323.063-.589.188-.798a1.37 1.37 0 0 1 .505-.496 2.63 2.63 0 0 1 .711-.276 7.27 7.27 0 0 1 .8-.142l.838-.097c.215-.027.371-.071.468-.131s.146-.157.146-.291v-.026c0-.326-.092-.578-.277-.757s-.454-.268-.815-.268c-.377 0-.674.083-.891.25a1.33 1.33 0 0 0-.445.548l-1.052-.239c.125-.348.307-.629.547-.843a2.22 2.22 0 0 1 .834-.47 3.27 3.27 0 0 1 .992-.149c.229 0 .472.027.729.082a2.21 2.21 0 0 1 .726.291c.224.142.413.344.558.608s.217.6.217 1.018v3.802h-1.093v-.783h-.045a1.59 1.59 0 0 1-.325.425 1.74 1.74 0 0 1-.558.347 2.17 2.17 0 0 1-.816.138zm.244-.895c.309 0 .573-.061.793-.183a1.3 1.3 0 0 0 .505-.477c.115-.196.176-.411.176-.637v-.738c-.04.04-.117.077-.232.112a3.59 3.59 0 0 1-.386.086l-.422.063-.345.045c-.217.027-.415.073-.595.138a1.02 1.02 0 0 0-.426.279c-.105.119-.157.278-.157.477 0 .276.102.485.307.626s.465.209.782.209zm-8.514.768v-7.634h2.732c.596 0 1.09.108 1.481.324s.685.512.88.887.292.793.292 1.26a2.69 2.69 0 0 1-.296 1.267 2.13 2.13 0 0 1-.883.887c-.394.218-.884.324-1.478.324h-1.878v-.977h1.773c.377 0 .682-.065.917-.194a1.2 1.2 0 0 0 .516-.537c.109-.226.165-.483.165-.772s-.055-.544-.165-.768a1.18 1.18 0 0 0-.52-.526c-.237-.127-.544-.19-.928-.19h-1.451v6.646h-1.157zm-8.053-3.4v3.4h-1.119v-5.726h1.074v.932h.071c.133-.303.34-.547.622-.731s.642-.276 1.073-.276c.392 0 .735.082 1.029.246s.523.403.685.723.243.717.243 1.189v3.642h-1.118v-3.508c0-.415-.109-.739-.326-.973s-.515-.354-.894-.354a1.4 1.4 0 0 0-.692.168c-.202.112-.358.276-.476.492s-.172.472-.172.775zm-4.829 3.515c-.566 0-1.054-.12-1.463-.362a2.46 2.46 0 0 1-.943-1.025c-.219-.442-.329-.96-.329-1.554 0-.587.11-1.103.329-1.551s.532-.797.928-1.047.866-.377 1.4-.377a2.83 2.83 0 0 1 .943.16c.304.107.577.275.819.503s.433.526.573.891.209.804.209 1.323v.395h-4.569v-.835h3.473c0-.293-.06-.553-.18-.779s-.288-.409-.505-.54-.466-.198-.756-.198c-.314 0-.588.077-.823.231a1.55 1.55 0 0 0-.539.596c-.124.244-.187.508-.187.794v.652c0 .383.068.708.202.977s.328.473.573.615.53.209.857.209c.212 0 .405-.03.58-.09s.325-.154.452-.276.225-.272.292-.451l1.059.19a1.91 1.91 0 0 1-.456.816 2.22 2.22 0 0 1-.82.541c-.329.13-.7.19-1.119.19zm-6.919-.003c-.464 0-.878-.118-1.242-.354s-.646-.578-.853-1.018-.307-.973-.307-1.592.104-1.148.311-1.588.496-.777.86-1.01.777-.35 1.239-.35c.357 0 .643.06.86.179s.39.254.509.41a3.46 3.46 0 0 1 .285.414h.067v-2.837h1.119v7.634h-1.093v-.891h-.093c-.068.122-.165.261-.292.417s-.297.293-.517.41-.503.175-.853.175zm.247-.95c.322 0 .594-.084.816-.254s.394-.409.509-.712.176-.656.176-1.059-.058-.746-.172-1.044a1.53 1.53 0 0 0-.506-.697c-.222-.166-.496-.25-.823-.25-.336 0-.617.087-.842.261s-.394.411-.508.712-.169.64-.169 1.018a2.95 2.95 0 0 0 .172 1.032c.114.305.285.548.509.727s.507.265.838.265zm-6.84.95c-.464 0-.878-.118-1.243-.354a2.42 2.42 0 0 1-.853-1.018c-.204-.442-.307-.973-.307-1.592s.104-1.148.311-1.588.496-.777.861-1.01a2.25 2.25 0 0 1 1.238-.35c.357 0 .644.06.861.179s.389.254.509.41a3.44 3.44 0 0 1 .284.414h.067v-2.837h1.119v7.634h-1.093v-.891h-.093c-.067.122-.165.261-.292.417a1.66 1.66 0 0 1-.516.41c-.219.117-.504.175-.853.175zm.247-.95c.321 0 .593-.084.815-.254s.394-.409.509-.712.176-.656.176-1.059-.057-.746-.172-1.044-.283-.531-.505-.697-.497-.25-.823-.25c-.337 0-.618.087-.842.261a1.6 1.6 0 0 0-.509.712 2.9 2.9 0 0 0-.169 1.018c0 .383.058.727.173 1.032s.284.548.508.727.507.265.839.265zm-5.023.838v-5.726h1.119v5.726h-1.119zm.565-6.609a.71.71 0 0 1-.501-.194c-.138-.132-.206-.288-.206-.47a.62.62 0 0 1 .206-.47.7.7 0 0 1 .501-.198c.195 0 .36.066.498.198s.209.286.209.47-.07.338-.209.47a.7.7 0 0 1-.498.194zm-8.301 6.609v-7.634h1.156v3.318h3.821v-3.318h1.159v7.634h-1.159v-3.329h-3.821v3.329h-1.156z"/><use xlink:href="#B"/><path d="M134.367 44.35v-3.351h1.123v5.726h-1.1v-.991h-.06c-.132.306-.344.56-.636.764s-.65.302-1.082.302c-.369 0-.696-.081-.98-.242s-.504-.406-.666-.727-.239-.717-.239-1.189V41h1.118v3.508c0 .39.109.701.326.932s.499.347.845.347c.21 0 .418-.052.625-.157a1.31 1.31 0 0 0 .52-.473c.14-.211.209-.48.206-.805zm-7.563 2.49c-.539 0-1.009-.123-1.411-.369s-.713-.59-.935-1.033-.333-.959-.333-1.551.111-1.113.333-1.558a2.49 2.49 0 0 1 .935-1.036c.402-.246.872-.369 1.411-.369s1.009.123 1.411.369a2.49 2.49 0 0 1 .935 1.036c.222.445.333.964.333 1.558s-.111 1.108-.333 1.551-.534.787-.935 1.033-.872.369-1.411.369zm.004-.936c.349 0 .638-.092.868-.276s.399-.429.509-.734a2.96 2.96 0 0 0 .168-1.01 2.9 2.9 0 0 0-.168-1.007c-.112-.306-.28-.555-.509-.742s-.519-.28-.868-.28-.644.093-.876.28-.4.434-.512.742-.165.641-.165 1.007.055.704.165 1.01.283.55.512.734.524.276.876.276zm-9.199-6.813h1.314l2.002 3.47h.082l2.002-3.47h1.313l-2.78 4.637v2.997h-1.153v-2.997l-2.78-4.637z"/><use xlink:href="#B" x="-25.711"/><path d="M107.571 46.84c-.566 0-1.054-.12-1.463-.362a2.46 2.46 0 0 1-.943-1.025c-.219-.442-.329-.96-.329-1.554 0-.587.11-1.103.329-1.551s.532-.797.928-1.047.866-.377 1.4-.377a2.82 2.82 0 0 1 .942.16 2.29 2.29 0 0 1 .82.503c.242.228.433.526.572.891s.21.804.21 1.323v.395h-4.569v-.835h3.473c0-.293-.06-.553-.18-.779s-.288-.409-.505-.54a1.43 1.43 0 0 0-.756-.198c-.314 0-.589.077-.823.231a1.55 1.55 0 0 0-.539.596c-.125.244-.187.508-.187.794v.652c0 .383.067.708.202.977a1.46 1.46 0 0 0 .572.615c.245.139.531.209.857.209a1.78 1.78 0 0 0 .58-.09 1.25 1.25 0 0 0 .453-.276c.127-.122.225-.272.292-.451l1.059.19a1.9 1.9 0 0 1-.457.816c-.22.233-.49.411-.819.541s-.7.19-1.119.19zm-3.327-5.841l-2.084 5.726h-1.197l-2.088-5.726h1.201l1.456 4.406h.059l1.452-4.406h1.201zm-8.651 5.841c-.539 0-1.009-.123-1.411-.369a2.49 2.49 0 0 1-.935-1.033c-.222-.442-.333-.959-.333-1.551s.111-1.113.333-1.558.534-.79.935-1.036.872-.369 1.411-.369 1.009.123 1.411.369a2.48 2.48 0 0 1 .935 1.036c.222.445.333.964.333 1.558s-.111 1.108-.333 1.551a2.49 2.49 0 0 1-.935 1.033c-.402.246-.872.369-1.411.369zm.004-.936c.349 0 .639-.092.868-.276s.399-.429.509-.734a2.91 2.91 0 0 0 .168-1.01 2.9 2.9 0 0 0-.168-1.007 1.64 1.64 0 0 0-.509-.742c-.23-.186-.519-.28-.868-.28s-.644.093-.876.28-.4.434-.513.742-.165.641-.165 1.007a2.97 2.97 0 0 0 .165 1.01 1.64 1.64 0 0 0 .513.734c.232.184.524.276.876.276zm-5.98.936c-.556 0-1.035-.126-1.437-.377a2.46 2.46 0 0 1-.92-1.047c-.214-.444-.322-.954-.322-1.528 0-.581.11-1.095.329-1.539s.529-.797.928-1.047.869-.377 1.411-.377c.437 0 .826.081 1.167.242a2.12 2.12 0 0 1 .827.671 2.04 2.04 0 0 1 .378 1.01h-1.089a1.3 1.3 0 0 0-.412-.693c-.215-.194-.496-.291-.853-.291a1.39 1.39 0 0 0-.819.246c-.234.164-.413.393-.542.693s-.195.651-.195 1.059c0 .418.064.778.191 1.081a1.61 1.61 0 0 0 .539.705 1.39 1.39 0 0 0 .827.25c.212 0 .404-.038.576-.115s.32-.193.438-.339a1.3 1.3 0 0 0 .251-.529h1.089c-.04.37-.161.701-.363.992a2.09 2.09 0 0 1-.812.686c-.339.167-.732.25-1.186.25zm-3.767-4.443l-1.014.179c-.042-.129-.11-.252-.202-.369a1 1 0 0 0-.367-.287c-.155-.075-.348-.112-.58-.112-.317 0-.581.071-.793.212s-.318.319-.318.541a.57.57 0 0 0 .213.462c.142.117.372.212.688.287l.913.209c.529.122.923.309 1.182.563s.389.583.389.988a1.5 1.5 0 0 1-.299.917c-.199.268-.473.475-.827.626s-.76.227-1.224.227c-.644 0-1.169-.137-1.575-.41s-.656-.667-.748-1.174l1.081-.164c.067.281.206.493.415.637s.483.212.819.212c.367 0 .66-.076.879-.227s.329-.342.329-.563c0-.179-.067-.329-.202-.451s-.335-.214-.61-.276l-.973-.212c-.536-.122-.933-.316-1.19-.581s-.382-.603-.382-1.01a1.44 1.44 0 0 1 .284-.887 1.86 1.86 0 0 1 .786-.593c.334-.144.717-.216 1.149-.216.621 0 1.11.134 1.467.403s.593.623.707 1.07zm-6.927 4.328v-5.726h1.119v5.726h-1.119zm.565-6.609a.71.71 0 0 1-.501-.194.63.63 0 0 1-.206-.47.62.62 0 0 1 .206-.47c.14-.132.307-.198.501-.198a.69.69 0 0 1 .498.198c.14.129.21.286.21.47a.62.62 0 0 1-.21.47.7.7 0 0 1-.498.194zm-5.601 6.609h-2.481v-7.634h2.559c.751 0 1.396.153 1.934.459s.952.739 1.239 1.308.434 1.246.434 2.039-.146 1.479-.438 2.05-.708 1.011-1.257 1.32-1.212.459-1.991.459zm-1.325-1.007h1.261c.584 0 1.069-.109 1.455-.328a2.07 2.07 0 0 0 .868-.958c.192-.42.288-.932.288-1.536s-.096-1.107-.288-1.525a2.03 2.03 0 0 0-.849-.951c-.377-.216-.844-.324-1.403-.324h-1.332v5.621z"/></g><defs ><path id="B" d="M136.992 46.725v-5.726h1.082v.91h.059a1.39 1.39 0 0 1 .554-.727 1.59 1.59 0 0 1 .906-.268l.247.008.228.019v1.066c-.045-.012-.125-.026-.24-.041a2.28 2.28 0 0 0-.344-.026c-.264 0-.5.056-.707.168a1.24 1.24 0 0 0-.486.459c-.12.194-.18.415-.18.663v3.496h-1.119z"/></defs></svg>