<svg width="70" height="69" viewBox="0 0 70 69" fill="none" xmlns="http://www.w3.org/2000/svg">
<path d="M35.3211 3.83398C18.4121 3.83398 4.65234 17.5938 4.65234 34.5027C4.65234 42.5417 7.76409 49.8662 12.8451 55.3377C12.9032 55.4374 12.9863 55.5247 13.0902 55.5911C15.2298 57.847 17.7059 59.7789 20.4437 61.3036C20.5143 61.3618 20.5933 61.4075 20.6764 61.4365C25.0303 63.8129 30.0241 65.1673 35.3252 65.1673C40.6264 65.1673 45.5288 63.8379 49.8578 61.4989C49.9409 61.4656 50.024 61.4241 50.0946 61.3659C55.0426 58.6364 59.1515 54.5774 61.9558 49.6792C62.0264 49.6003 62.0804 49.5047 62.1137 49.405C64.5814 44.9888 65.994 39.9036 65.994 34.4944C65.994 17.5938 52.2342 3.83398 35.3211 3.83398ZM35.3211 5.4958C51.316 5.4958 64.328 18.5078 64.328 34.5027C64.328 35.1799 64.3031 35.8488 64.2574 36.5094C62.2798 35.9859 57.4024 34.5277 52.4128 31.7732C45.8071 28.1297 43.3975 29.7209 38.599 32.8949C37.0411 33.9252 35.2754 35.0885 32.9738 36.364C28.4786 38.8525 24.0872 40.8508 20.2775 42.3963C19.8288 38.1629 20.103 29.7084 27.71 22.9573C28.005 23.838 28.1462 26.2518 27.6103 28.595L27.3776 29.6004C26.6547 32.7121 26.3847 34.0083 26.9913 34.7728C27.2239 35.0677 27.5646 35.2256 27.951 35.2256C28.8192 35.2256 29.862 34.0374 30.4063 33.3311C31.233 32.251 33.7008 28.5576 32.9364 23.8256C33.68 24.0541 34.8724 24.6523 36.4553 26.1937C37.1657 26.8833 37.8346 27.6727 38.4287 28.3748C39.5836 29.7375 40.1113 30.3565 40.8466 30.1945C41.2039 30.1155 41.4739 29.8413 41.5737 29.4674C41.7191 28.9273 41.9517 26.1646 40.3688 23.46C39.243 21.5364 37.4939 20.1405 35.1591 19.293C35.7698 18.8858 36.8458 18.4829 38.6696 18.5659C40.6181 18.6532 42.3215 18.8277 43.5637 18.9523C45.5745 19.1559 45.9941 19.2016 46.3846 18.8485C46.5591 18.6906 46.6713 18.4372 46.6713 18.2004C46.6713 17.411 44.1495 13.5431 37.415 13.5307H37.3942C35.7158 13.5307 34.4279 13.8963 33.4723 14.3533C34.2741 12.3965 35.7947 9.82482 38.4287 8.93159C38.7693 8.81527 38.9978 8.49537 38.9937 8.13392C38.9895 7.77248 38.7527 7.45673 38.4079 7.35287C36.1395 6.6466 31.2164 6.34748 28.8359 10.286C27.8762 11.873 27.5729 13.3395 27.5313 14.482C26.4802 13.6802 25.0262 12.7496 23.4184 12.2635C19.9659 11.2166 16.6672 12.4754 16.0773 13.2232C15.8363 13.5307 15.8031 13.917 15.9901 14.2369C16.3806 14.9058 17.3818 15.234 19.0395 15.7866C19.7707 16.0275 20.6099 16.3059 21.4242 16.6382C19.9701 16.6175 18.3124 16.8252 16.8293 17.5689C13.6801 19.1517 12.924 22.4712 12.8949 22.6125C12.8285 22.9199 12.9406 23.2356 13.1816 23.4351C13.4267 23.6345 13.7591 23.676 14.0457 23.5472C14.1081 23.5181 19.1766 21.2705 23.4724 21.0462C19.6834 23.9004 12.4172 31.2414 13.6718 44.8766C11.4159 45.6493 9.72918 46.1479 8.85673 46.3971C7.21984 42.7702 6.30585 38.7487 6.30585 34.5152C6.31416 18.5078 19.3261 5.4958 35.3211 5.4958ZM15.3004 44.2991C13.9585 27.573 25.8861 21.3578 26.4055 21.1002C26.7254 20.9423 26.904 20.5975 26.8583 20.2444C26.8085 19.8912 26.5426 19.6087 26.1936 19.5423C22.6415 18.8526 17.8596 20.3109 15.2506 21.2705C15.72 20.4895 16.4554 19.6129 17.5812 19.0479C20.6265 17.5149 24.8558 18.7944 24.8974 18.8111C25.2505 18.9191 25.6327 18.7861 25.8363 18.4745C26.0399 18.1671 26.0149 17.76 25.774 17.4775C24.3282 15.7824 21.6859 14.9058 19.563 14.2037C19.2181 14.0915 18.8234 13.9586 18.4578 13.8298C19.5214 13.5265 21.1791 13.3188 22.9323 13.8506C25.641 14.669 27.9842 17.0745 28.005 17.0952C28.2792 17.3778 28.7154 17.4318 29.0477 17.2199C29.3801 17.008 29.5214 16.5925 29.3843 16.2269C29.376 16.2062 28.5617 13.9461 30.2526 11.1418C31.5862 8.93575 33.8712 8.5286 35.6036 8.58261C32.1138 11.2457 31.1125 16.2062 31.0668 16.4554C30.9921 16.8418 31.1998 17.224 31.5612 17.3736C31.9227 17.5273 32.3423 17.4027 32.5708 17.0786C32.6248 16.9997 33.921 15.1966 37.39 15.1966H37.4067C40.8674 15.2008 43.007 16.3765 44.1162 17.3404C43.9874 17.3279 43.8587 17.3154 43.7257 17.2988C42.4627 17.17 40.7344 16.9955 38.7403 16.9041C34.083 16.6923 32.9405 19.2681 32.8948 19.3802C32.7993 19.6046 32.8076 19.8539 32.9156 20.074C33.0236 20.2901 33.2189 20.448 33.4515 20.5103C38.6779 21.848 39.7706 25.5663 39.9575 27.6228C39.8661 27.5148 39.7747 27.4068 39.6875 27.3071C39.1017 26.6174 38.3747 25.7533 37.6061 25.0096C34.0997 21.6029 31.9144 22.0267 31.6734 22.0848C31.4574 22.1388 31.2704 22.2759 31.1582 22.4712C31.0461 22.6623 31.0128 22.8908 31.071 23.1068C32.3464 27.8513 29.6834 31.9352 28.329 33.2107C28.4204 32.4213 28.7237 31.1043 28.9854 29.9909L29.2181 28.9772C29.7083 26.8293 30.0033 22.2219 28.4578 21.2913C27.951 20.988 27.3444 21.0711 26.8334 21.5157C18.1379 29.052 18.113 38.6448 18.6614 43.0444C17.4566 43.5139 16.3266 43.9335 15.2838 44.3074L15.3004 44.2991ZM9.60039 47.9011C10.639 47.602 12.4379 47.0536 14.7728 46.2434C14.8185 46.231 14.86 46.2185 14.9016 46.1977C16.3598 45.6909 18.0175 45.0802 19.8247 44.3656C19.8704 44.3531 19.9161 44.3323 19.9576 44.3116C24.0332 42.6955 28.8483 40.5434 33.7756 37.8139C36.1312 36.5094 38.0049 35.2713 39.5089 34.2784C44.0207 31.2996 45.7033 30.1903 50.7261 32.762C49.7581 33.3478 47.552 33.9377 46.1062 34.3241C43.4016 35.0428 40.8466 35.7242 39.7872 36.9954C39.2887 37.5937 39.2887 38.1296 39.3801 38.4745C39.6418 39.4965 40.8715 39.9701 42.4253 40.5766C44.5608 41.4076 46.181 42.1429 45.9733 43.3851C45.6783 45.1508 37.8844 48.7361 28.2168 48.4204C27.764 48.3539 27.2571 48.3124 26.6797 48.3124C26.5924 48.3124 26.5052 48.3124 26.4221 48.3165C26.4096 48.3165 26.3972 48.3165 26.3888 48.3165C24.2534 48.3705 23.0901 48.9771 22.0557 49.513C21.0129 50.0573 20.1155 50.5267 18.1961 50.5267C16.2767 50.5267 15.3793 50.0573 14.3366 49.513C13.273 48.9605 12.0682 48.3332 9.81227 48.3165C9.73749 48.1794 9.66686 48.0382 9.59623 47.9011H9.60039ZM35.3211 63.5097C30.8674 63.5097 26.6506 62.5001 22.8741 60.697C23.8961 60.1653 24.7977 59.7083 26.6838 59.7083C28.57 59.7083 29.5006 60.1777 30.5434 60.722C31.6236 61.2828 32.845 61.9226 35.1715 61.9226C37.4981 61.9226 38.7195 61.287 39.7997 60.722C40.8425 60.1777 41.7398 59.7083 43.6592 59.7083C45.5786 59.7083 46.476 60.1777 47.5188 60.722C47.5479 60.7386 47.577 60.751 47.606 60.7677C43.8711 62.5209 39.7083 63.5055 35.3169 63.5055L35.3211 63.5097ZM49.4714 59.808C49.0518 59.6459 48.6779 59.4507 48.2874 59.2471C47.2072 58.6862 45.9858 58.0465 43.6592 58.0465C41.3327 58.0465 40.1113 58.6862 39.0311 59.2471C37.9883 59.7914 37.0909 60.2608 35.1715 60.2608C33.2521 60.2608 32.3548 59.7914 31.312 59.2471C30.2318 58.6862 29.0104 58.0465 26.6838 58.0465C24.3573 58.0465 23.1358 58.6821 22.0557 59.2471C21.7192 59.4216 21.3951 59.5919 21.0461 59.7373C19.6294 58.9314 18.2834 58.0132 17.0245 56.9912C17.3818 57.0286 17.7682 57.0494 18.1961 57.0494C20.5226 57.0494 21.7441 56.4137 22.8243 55.8487C23.867 55.3045 24.7644 54.835 26.6838 54.835C28.6032 54.835 29.5006 55.3045 30.5434 55.8487C31.6236 56.4096 32.845 57.0494 35.1715 57.0494C37.4981 57.0494 38.7195 56.4137 39.7997 55.8487C40.8425 55.3045 41.7398 54.835 43.6592 54.835C45.5786 54.835 46.476 55.3045 47.5188 55.8487C48.599 56.4096 49.8204 57.0494 52.1469 57.0494C52.7161 57.0494 53.2147 57.012 53.6675 56.9455C52.3588 58.0174 50.9546 58.9729 49.4714 59.8038V59.808ZM56.7875 53.9875C56.5217 54.1121 56.2641 54.2451 56.0107 54.378C54.9679 54.9222 54.0705 55.3917 52.1511 55.3917C50.2317 55.3917 49.3343 54.9222 48.2915 54.378C47.2114 53.8171 45.9899 53.1773 43.6634 53.1773C41.3368 53.1773 40.1154 53.813 39.0352 54.378C37.9925 54.9222 37.0951 55.3917 35.1757 55.3917C33.2563 55.3917 32.3589 54.9222 31.3161 54.378C30.2359 53.8171 29.0145 53.1773 26.688 53.1773C24.3614 53.1773 23.14 53.813 22.0598 54.378C21.017 54.9222 20.1197 55.3917 18.2003 55.3917C16.2809 55.3917 15.3835 54.9222 14.3407 54.3822C14.2659 54.3448 14.1911 54.3032 14.1122 54.2658C12.8991 52.9613 11.8023 51.5488 10.8426 50.0407C12.0308 50.1861 12.7578 50.5641 13.5721 50.9879C14.6523 51.5488 15.8737 52.1886 18.2003 52.1886C20.5268 52.1886 21.7482 51.5529 22.8284 50.9879C23.813 50.4727 24.673 50.0282 26.3888 49.9825C26.9414 50.0282 27.494 50.0573 28.0465 50.0739C29.1059 50.2401 29.7914 50.5932 30.5475 50.9879C31.6277 51.5488 32.8491 52.1886 35.1757 52.1886C37.5022 52.1886 38.7236 51.5529 39.8038 50.9879C40.8466 50.4437 41.744 49.9742 43.6634 49.9742C45.5828 49.9742 46.4802 50.4437 47.5229 50.9879C48.6031 51.5488 49.8246 52.1886 52.1511 52.1886C54.4776 52.1886 55.6991 51.5529 56.7792 50.9879C57.66 50.5309 58.441 50.1238 59.8204 50.0074C58.923 51.42 57.9134 52.7577 56.7917 53.9916L56.7875 53.9875ZM60.8258 48.3082H60.6388C58.3123 48.3082 57.0908 48.9439 56.0107 49.5089C54.9679 50.0531 54.0705 50.5226 52.1511 50.5226C50.2317 50.5226 49.3343 50.0531 48.2915 49.5089C47.2114 48.948 45.9899 48.3082 43.6634 48.3082C41.3368 48.3082 40.1154 48.9439 39.0352 49.5089C37.9925 50.0531 37.0951 50.5226 35.1757 50.5226C33.8545 50.5226 33.0153 50.2983 32.28 49.9825C40.3065 49.3843 47.1532 46.4553 47.6185 43.6552C48.063 40.9796 45.159 39.8496 43.0319 39.0229C42.3464 38.757 41.3368 38.3664 41.0419 38.0881C41.0502 38.0798 41.0585 38.0673 41.0668 38.0549C41.7897 37.1866 44.3115 36.5177 46.5383 35.9236C49.0477 35.2547 51.2828 34.6606 52.2965 33.597C57.4772 36.3473 62.3006 37.7266 64.0954 38.1836C63.6342 41.8064 62.5 45.2256 60.8258 48.3082Z" fill="#487254"/>
</svg>
