<svg width="41" height="40" viewBox="0 0 41 40" fill="none" xmlns="http://www.w3.org/2000/svg">
<g clip-path="url(#clip0_56_13048)">
<path d="M41.6484 35.125H-0.101562V26.375C-0.101562 25.75 0.398437 25.125 1.14844 25.125H40.5234C41.1484 25.125 41.7734 25.625 41.7734 26.375V35.125H41.6484Z" stroke="#487254" stroke-width="1.25" stroke-miterlimit="10" stroke-linecap="round" stroke-linejoin="round"/>
<path d="M37.6484 25.125H3.77344V13.5C3.77344 12.25 4.77344 11.125 6.14844 11.125H35.2734C36.5234 11.125 37.6484 12.125 37.6484 13.5V25.125Z" stroke="#487254" stroke-width="1.25" stroke-miterlimit="10" stroke-linecap="round" stroke-linejoin="round"/>
<path d="M29.7734 25.125H11.7734V18.875C11.7734 18 12.5234 17.25 13.3984 17.25H28.0234C28.8984 17.25 29.6484 18 29.6484 18.875V25.125H29.7734Z" stroke="#487254" stroke-width="1.25" stroke-miterlimit="10" stroke-linecap="round" stroke-linejoin="round"/>
</g>
<defs>
<clipPath id="clip0_56_13048">
<rect width="40" height="40" fill="white" transform="translate(0.523438)"/>
</clipPath>
</defs>
</svg>
