<svg width="24" height="24" viewBox="0 0 24 24" fill="none" xmlns="http://www.w3.org/2000/svg">
<path d="M12.0156 1.99902C6.49283 1.99902 2.01562 6.47602 2.01562 11.999C2.01562 17.522 6.49283 21.999 12.0156 21.999C17.5384 21.999 22.0156 17.522 22.0156 11.999C22.0156 6.47602 17.5384 1.99902 12.0156 1.99902ZM12.0156 3.99902C16.4339 3.99902 20.0156 7.58101 20.0156 11.999C20.0156 16.417 16.4339 19.999 12.0156 19.999C7.59732 19.999 4.01562 16.417 4.01562 11.999C4.01562 7.58101 7.59732 3.99902 12.0156 3.99902ZM16.0156 8.99901C15.7597 8.99901 15.4921 9.08502 15.2968 9.28002L11.5781 13.03C11.3203 13.288 11.0616 13.24 10.8594 12.937L9.85942 11.437C9.55302 10.977 8.91272 10.849 8.45312 11.155C7.99363 11.462 7.86553 12.102 8.17183 12.561L9.17183 14.061C10.0742 15.415 11.8341 15.587 12.9844 14.437L16.7344 10.718C17.1249 10.327 17.1249 9.67102 16.7344 9.28002C16.5391 9.08502 16.2715 8.99901 16.0156 8.99901Z" fill="#487254"/>
</svg>
