<svg width="76" height="76" viewBox="0 0 76 76" fill="none" xmlns="http://www.w3.org/2000/svg">
<path fill-rule="evenodd" clip-rule="evenodd" d="M38 0.5C58.7106 0.5 75.5 17.2894 75.5 38C75.5 58.7106 58.7106 75.5 38 75.5C17.2894 75.5 0.5 58.7106 0.5 38C0.5 17.2894 17.2894 0.5 38 0.5ZM20.4469 40.2264L31.1269 50.0344C32.6848 51.4681 35.0962 51.3919 36.5611 49.8806L55.6139 31.6386C57.1636 30.1478 57.2114 27.683 55.7206 26.1334C54.2298 24.5837 51.7652 24.5359 50.2155 26.0266L33.7116 41.8281L25.7234 34.4922C24.14 33.0352 21.6752 33.1375 20.2181 34.7209C18.7611 36.3045 18.8634 38.7694 20.4469 40.2264Z" fill="#487254"/>
</svg>
