<svg width="30" height="30" viewBox="0 0 30 30" fill="none" xmlns="http://www.w3.org/2000/svg">
<g clip-path="url(#clip0_56_14600)">
<mask id="mask0_56_14600" style="mask-type:luminance" maskUnits="userSpaceOnUse" x="0" y="0" width="30" height="30">
<path d="M0 0H30V30H0V0Z" fill="white"/>
</mask>
<g mask="url(#mask0_56_14600)">
<path d="M15.165 22.2987C13.7481 22.2989 12.3629 21.8789 11.1846 21.0918C10.0064 20.3048 9.088 19.186 8.54562 17.8769C8.00324 16.5679 7.86122 15.1274 8.13754 13.7377C8.41385 12.3479 9.09607 11.0714 10.0979 10.0693C11.0998 9.06734 12.3763 8.38494 13.766 8.10843C15.1557 7.83193 16.5962 7.97374 17.9053 8.51594C19.2144 9.05813 20.3333 9.97636 21.1206 11.1545C21.9078 12.3326 22.328 13.7178 22.328 15.1347C22.3227 17.0329 21.5664 18.8519 20.2242 20.1942C18.8821 21.5366 17.0632 22.2932 15.165 22.2987ZM15.165 8.72871C13.898 8.72851 12.6593 9.10405 11.6057 9.80783C10.5522 10.5116 9.73093 11.512 9.24592 12.6825C8.76091 13.8531 8.63391 15.1411 8.88097 16.3838C9.12803 17.6266 9.73807 18.7681 10.6339 19.6641C11.5298 20.5601 12.6712 21.1703 13.9139 21.4175C15.1566 21.6648 16.4446 21.538 17.6152 21.0532C18.7858 20.5683 19.7864 19.7473 20.4903 18.6938C21.1943 17.6403 21.57 16.4017 21.57 15.1347C21.5655 13.4374 20.8893 11.8108 19.6891 10.6106C18.4889 9.41045 16.8623 8.73319 15.165 8.72871Z" fill="#487254"/>
<path d="M15.569 16H11.4321C11.1933 16 11 15.7767 11 15.5004C11 15.2241 11.1933 15 11.4321 15H15.569C15.8078 15 16 15.2241 16 15.5004C16 15.7767 15.8067 16 15.5679 16H15.569Z" fill="#487254"/>
<path d="M15.5004 15.9986C15.3742 16.008 15.2485 15.9701 15.1382 15.8893C15.0418 15.8136 14.9928 15.7085 15.0009 15.6003V10.5821C15.0009 10.4391 15.0956 10.3078 15.2498 10.2363C15.4121 10.1649 15.5879 10.1649 15.7502 10.2363C15.9044 10.3078 15.9991 10.4391 15.9991 10.5821V15.6003C16.0072 15.7085 15.9582 15.8136 15.8626 15.8893C15.7523 15.9701 15.6266 16.008 15.5004 15.9986ZM15.5004 8.86905C15.3742 8.87841 15.2485 8.8405 15.1382 8.75975C15.0418 8.68303 14.9928 8.57794 15.0009 8.47074V6.39934C15.0009 6.25642 15.0956 6.1261 15.2498 6.05359C15.4121 5.98214 15.5879 5.98214 15.7502 6.05359C15.9044 6.12505 15.9991 6.25642 15.9991 6.39934V8.46969C16.0072 8.57794 15.9582 8.68303 15.8626 8.75975C15.7523 8.8405 15.6266 8.87841 15.5004 8.86905Z" fill="#487254"/>
<path d="M17.1 7.24325H13.233C13.131 7.25325 13.031 7.19125 12.959 7.07325C12.8818 6.93596 12.8453 6.77951 12.854 6.62225C12.8453 6.46499 12.8818 6.30854 12.959 6.17125C13.031 6.05225 13.131 5.99025 13.233 6.00125H17.137C17.239 5.99025 17.339 6.05225 17.412 6.17125C17.484 6.29025 17.522 6.45425 17.516 6.62125C17.5173 6.78248 17.4733 6.94083 17.389 7.07825C17.31 7.19625 17.207 7.25525 17.1 7.24325ZM19.904 23.8143H10.429C10.3606 23.8145 10.2933 23.7972 10.2336 23.7639C10.1738 23.7306 10.1237 23.6825 10.088 23.6243C10.051 23.568 10.0313 23.5021 10.0312 23.4347C10.0312 23.3674 10.051 23.3015 10.088 23.2453L11.528 20.8953C11.5553 20.8529 11.5908 20.8164 11.6323 20.7877C11.6738 20.7591 11.7205 20.7389 11.7698 20.7283C11.8192 20.7177 11.8701 20.7169 11.9197 20.726C11.9693 20.7351 12.0166 20.7539 12.059 20.7812C12.1013 20.8086 12.1378 20.8441 12.1665 20.8856C12.1951 20.9271 12.2153 20.9738 12.2259 21.0231C12.2365 21.0724 12.2373 21.1234 12.2282 21.173C12.2191 21.2226 12.2003 21.2699 12.173 21.3123L11.073 23.0933H19.222L18.122 21.3132C18.0665 21.2277 18.0473 21.1237 18.0686 21.024C18.0899 20.9243 18.1499 20.8372 18.2355 20.7817C18.321 20.7263 18.425 20.7071 18.5247 20.7284C18.6244 20.7497 18.7115 20.8097 18.767 20.8953L20.207 23.2453C20.2442 23.3016 20.264 23.3677 20.264 23.4353C20.264 23.5028 20.2442 23.5689 20.207 23.6252C20.1791 23.6819 20.136 23.7296 20.0825 23.763C20.0289 23.7964 19.9671 23.8142 19.904 23.8143Z" fill="#487254"/>
</g>
</g>
<defs>
<clipPath id="clip0_56_14600">
<rect width="30" height="30" fill="white"/>
</clipPath>
</defs>
</svg>
