<svg width="30" height="30" viewBox="0 0 30 30" fill="none" xmlns="http://www.w3.org/2000/svg">
<mask id="mask0_56_14587" style="mask-type:luminance" maskUnits="userSpaceOnUse" x="0" y="0" width="30" height="30">
<path d="M0 0H30V30H0V0Z" fill="white"/>
</mask>
<g mask="url(#mask0_56_14587)">
<path d="M9.068 13.9792C7.658 13.9792 6.5 12.4252 6.5 10.5082C6.5 8.59016 7.657 7.03516 9.068 7.03516C10.478 7.03516 11.636 8.59016 11.636 10.5082C11.636 12.4252 10.443 13.9802 9.068 13.9802V13.9792ZM9.068 7.72216C8.055 7.72216 7.223 8.95216 7.223 10.4722C7.223 11.9902 8.055 13.2202 9.068 13.2202C10.081 13.2202 10.913 11.9902 10.913 10.4712C10.913 8.95216 10.045 7.72216 9.068 7.72216Z" fill="#487254" stroke="#487254" stroke-width="0.3"/>
<path d="M9.06512 23.4929C8.84812 23.4929 8.70312 23.3479 8.70312 23.1309V13.6179C8.70312 13.4009 8.84812 13.2559 9.06512 13.2559C9.28212 13.2559 9.42712 13.4009 9.42712 13.6179V23.1309C9.42712 23.3109 9.24612 23.4929 9.06512 23.4929ZM15.9371 23.4929C15.7201 23.4929 15.5761 23.3479 15.5761 23.1309V13.6179C15.5761 13.4009 15.7201 13.2559 15.9371 13.2559C16.1541 13.2559 16.2991 13.4009 16.2991 13.6179V23.1309C16.2991 23.3109 16.1541 23.4929 15.9371 23.4929Z" fill="#487254" stroke="#487254" stroke-width="0.3"/>
<path d="M16.4072 13.473H15.4672C15.1584 13.4736 14.8526 13.4131 14.5673 13.2952C14.2819 13.1773 14.0226 13.0042 13.8043 12.7859C13.586 12.5676 13.4129 12.3083 13.295 12.023C13.1771 11.7376 13.1167 11.4318 13.1172 11.123V7.36005C13.1172 7.14305 13.2612 6.99805 13.4772 6.99805C13.6952 6.99805 13.8402 7.14305 13.8402 7.36005V11.121C13.8391 11.3351 13.8805 11.5471 13.9619 11.7451C14.0432 11.943 14.163 12.1229 14.3143 12.2742C14.4656 12.4256 14.6454 12.5455 14.8432 12.627C15.0411 12.7085 15.2532 12.75 15.4672 12.749H16.4072C16.6213 12.7501 16.8335 12.7087 17.0315 12.6273C17.2294 12.5458 17.4093 12.426 17.5607 12.2746C17.7121 12.1232 17.832 11.9433 17.9134 11.7453C17.9949 11.5473 18.0363 11.3351 18.0352 11.121V7.36105C18.0352 7.14405 18.1802 6.99905 18.3972 6.99905C18.6142 6.99905 18.7592 7.14405 18.7592 7.36105V11.122C18.7598 11.431 18.6995 11.737 18.5816 12.0225C18.4637 12.308 18.2905 12.5675 18.0721 12.7859C17.8536 13.0044 17.5942 13.1775 17.3087 13.2954C17.0231 13.4133 16.7161 13.4737 16.4072 13.473Z" fill="#487254" stroke="#487254" stroke-width="0.3"/>
<path d="M15.9391 13.474C15.7221 13.474 15.5781 13.33 15.5781 13.113V7.362C15.5781 7.145 15.7221 7 15.9391 7C16.1561 7 16.3011 7.145 16.3011 7.362V13.112C16.3011 13.33 16.1561 13.474 15.9391 13.474Z" fill="#487254" stroke="#487254" stroke-width="0.3"/>
<path d="M21.0407 23.494C20.8237 23.494 20.6797 23.349 20.6797 23.132V7.362C20.6797 7.145 20.8237 7 21.0407 7C21.2577 7 21.4027 7.145 21.4027 7.362V23.096C21.4027 23.313 21.2227 23.494 21.0407 23.494Z" fill="#487254" stroke="#487254" stroke-width="0.3"/>
<path d="M23.1387 17.453H21.0407C20.8237 17.453 20.6797 17.309 20.6797 17.092V7.362C20.6797 7.145 20.8237 7 21.0407 7C22.7407 7 23.5007 9.423 23.5007 14.813V17.092C23.5007 17.309 23.3557 17.453 23.1387 17.453ZM21.4027 16.73H22.7777V14.813C22.7777 10.689 22.3077 8.303 21.4027 7.796V16.73Z" fill="#487254" stroke="#487254" stroke-width="0.3"/>
</g>
</svg>
