<svg width="41" height="40" viewBox="0 0 41 40" fill="none" xmlns="http://www.w3.org/2000/svg">
<path d="M10.6425 31.4349C10.7552 28.8893 11.8458 26.4853 13.687 24.7238C15.5282 22.9624 17.9781 21.9792 20.5262 21.9792C23.0743 21.9792 25.5242 22.9624 27.3654 24.7238C29.2066 26.4853 30.2972 28.8893 30.4099 31.4349H10.6425ZM14.7122 14.7682C14.7122 13.9792 14.8676 13.198 15.1696 12.4691C15.4715 11.7402 15.914 11.0779 16.4719 10.5201C17.0297 9.9622 17.692 9.51968 18.4209 9.21776C19.1498 8.91584 19.931 8.76045 20.72 8.76045C21.5089 8.76045 22.2902 8.91584 23.0191 9.21776C23.748 9.51968 24.4102 9.9622 24.9681 10.5201C25.526 11.0779 25.9685 11.7402 26.2704 12.4691C26.5723 13.198 26.7277 13.9792 26.7277 14.7682C26.7432 15.5532 26.6017 16.3335 26.3113 17.063C26.021 17.7926 25.5877 18.4567 25.0371 19.0164C24.4864 19.5761 23.8294 20.0201 23.1046 20.3223C22.3799 20.6244 21.6021 20.7787 20.8169 20.776C20.0216 20.7823 19.2328 20.632 18.4956 20.3335C17.7583 20.0351 17.0871 19.5943 16.5203 19.0364C15.9534 18.4786 15.502 17.8145 15.1917 17.0822C14.8815 16.3498 14.7186 15.5635 14.7122 14.7682ZM23.3363 21.3573C24.6771 20.8262 25.8277 19.9052 26.6396 18.7133C27.4515 17.5214 27.8872 16.1134 27.8905 14.6713C27.8905 13.7424 27.7076 12.8225 27.3521 11.9643C26.9966 11.1061 26.4756 10.3263 25.8187 9.66948C25.1619 9.01263 24.3821 8.49159 23.5239 8.13611C22.6656 7.78062 21.7458 7.59766 20.8169 7.59766C19.888 7.59766 18.9681 7.78062 18.1099 8.13611C17.2517 8.49159 16.4719 9.01263 15.8151 9.66948C15.1582 10.3263 14.6372 11.1061 14.2817 11.9643C13.9262 12.8225 13.7432 13.7424 13.7432 14.6713C13.7499 16.0622 14.155 17.4221 14.9106 18.5899C15.6663 19.7577 16.7407 20.6845 18.0068 21.2604C15.6303 21.8574 13.5205 23.2296 12.0113 25.1601C10.502 27.0905 9.67939 29.469 9.67348 31.9194C9.66262 32.0603 9.70716 32.1999 9.79765 32.3085C9.88813 32.417 10.0174 32.486 10.158 32.5008H30.8944C31.1851 32.5008 31.3789 32.307 31.3789 31.9194C31.4015 29.5157 30.6233 27.173 29.167 25.2605C27.7108 23.3481 25.6594 21.9749 23.3363 21.3573Z" fill="#487254"/>
</svg>
