<svg width="154" height="94" viewBox="0 0 154 94" fill="none" xmlns="http://www.w3.org/2000/svg">
<path d="M129.681 62.5391C127.129 62.5391 125.306 61.875 124.213 60.5469C123.119 59.2188 122.546 57.5911 122.494 55.6641C122.468 54.2578 122.754 52.6953 123.353 50.9766C123.952 49.2578 124.577 47.9427 125.228 47.0312C127.155 44.349 129.239 42.1615 131.478 40.4688C133.718 38.776 135.905 37.5391 138.041 36.7578C140.202 35.9505 142.103 35.5469 143.744 35.5469C145.332 35.5469 146.439 35.8073 147.064 36.3281C147.715 36.849 148.054 37.4479 148.08 38.125C148.158 39.1406 147.611 40.3255 146.439 41.6797C145.293 43.0078 143.275 44.4531 140.384 46.0156C137.494 47.5781 133.457 49.2188 128.275 50.9375C127.364 52.3958 126.752 53.6589 126.439 54.7266C126.127 55.7682 125.97 56.7057 125.97 57.5391C125.97 58.763 126.374 59.7135 127.181 60.3906C128.015 61.0677 128.991 61.4062 130.111 61.4062C132.559 61.4062 134.851 60.9505 136.986 60.0391C139.147 59.1016 141.114 57.9297 142.884 56.5234C144.681 55.1172 146.257 53.6979 147.611 52.2656C148.965 50.8073 150.072 49.5443 150.931 48.4766C151.791 47.3828 152.364 46.7057 152.65 46.4453L153.47 47.1094C153.08 47.4479 152.416 48.1901 151.478 49.3359C150.567 50.4818 149.395 51.7969 147.963 53.2812C146.556 54.7656 144.929 56.2109 143.08 57.6172C141.231 59.0234 139.174 60.1953 136.908 61.1328C134.668 62.0703 132.259 62.5391 129.681 62.5391ZM129.174 49.5703C134.226 47.7995 138.21 45.9766 141.127 44.1016C144.043 42.2005 145.502 40.3906 145.502 38.6719C145.502 37.2135 144.825 36.4844 143.47 36.4844C141.726 36.4844 139.838 37.4219 137.806 39.2969C135.775 41.1719 133.405 43.8932 130.697 47.4609C130.124 48.1901 129.616 48.8932 129.174 49.5703Z" fill="#487254"/>
<path d="M105.703 62.3828C104.609 62.3828 103.711 62.0833 103.008 61.4844C102.279 60.8594 101.914 60.1042 101.914 59.2188C101.914 58.5156 102.005 57.8385 102.188 57.1875C102.344 56.5104 102.721 55.651 103.32 54.6094C103.893 53.5417 104.779 52.1094 105.977 50.3125C107.174 48.5156 108.802 46.1328 110.859 43.1641L141.055 0C141.419 0.0260417 141.875 0.0651042 142.422 0.117188C142.995 0.169271 143.802 0.182292 144.844 0.15625C145.052 0.15625 145.286 0.143229 145.547 0.117188C145.833 0.0651042 146.146 0.0260417 146.484 0L114.375 44.5703C112.031 47.8516 110.195 50.4557 108.867 52.3828C107.539 54.2839 106.562 55.7422 105.938 56.7578C105.312 57.7474 104.922 58.4635 104.766 58.9062C104.609 59.3229 104.531 59.6875 104.531 60C104.531 60.8594 105.143 61.2891 106.367 61.2891C107.904 61.2891 109.518 60.8333 111.211 59.9219C112.93 59.0104 114.622 57.8776 116.289 56.5234C117.956 55.1432 119.492 53.737 120.898 52.3047C122.305 50.8724 123.49 49.6094 124.453 48.5156C125.443 47.4219 126.094 46.7318 126.406 46.4453L127.188 47.1094C126.849 47.4479 126.172 48.1771 125.156 49.2969C124.141 50.4167 122.891 51.7188 121.406 53.2031C119.922 54.6615 118.294 56.0938 116.523 57.5C114.779 58.9062 112.969 60.0781 111.094 61.0156C109.245 61.9271 107.448 62.3828 105.703 62.3828Z" fill="#487254"/>
<path d="M49.8125 93.0469C48.6927 93.0469 47.8464 92.7604 47.2734 92.1875C46.7005 91.6146 46.4141 91.0286 46.4141 90.4297C46.4141 89.0234 47.2344 87.4609 48.875 85.7422C50.4896 84.0495 53.3151 82.0833 57.3516 79.8438C61.362 77.6042 66.9349 74.987 74.0703 71.9922C76.2318 69.362 78.6146 66.3802 81.2188 63.0469C83.8229 59.7135 86.7396 55.9766 89.9688 51.8359L89.5391 51.6797C88.0807 53.2422 86.2448 54.8568 84.0312 56.5234C81.8438 58.1641 79.5521 59.5573 77.1562 60.7031C74.7604 61.8229 72.5078 62.3828 70.3984 62.3828C67.4818 62.3828 66.0234 61.3021 66.0234 59.1406C66.0234 58.2031 66.1927 57.2526 66.5312 56.2891C66.8438 55.2995 67.4688 54.0234 68.4062 52.4609C69.3698 50.8984 70.8021 48.776 72.7031 46.0938C73.901 44.6354 75.3333 43.0469 77 41.3281C78.6927 39.6094 80.5156 37.7604 82.4688 35.7812C83.3021 35.8594 83.9141 35.9245 84.3047 35.9766C84.7214 36.0026 85.2292 36.0156 85.8281 36.0156C86.974 36.0156 87.8984 35.9766 88.6016 35.8984C86.8047 37.513 85.3594 38.8932 84.2656 40.0391C83.1979 41.1589 82.2214 42.2396 81.3359 43.2812C80.4766 44.2969 79.4349 45.4557 78.2109 46.7578C77.612 47.4349 76.7917 48.3464 75.75 49.4922C74.7083 50.638 73.6406 51.862 72.5469 53.1641C71.4792 54.4401 70.5677 55.651 69.8125 56.7969C69.0833 57.9427 68.7188 58.8672 68.7188 59.5703C68.7188 60.4297 68.9531 60.9505 69.4219 61.1328C69.8906 61.2891 70.3203 61.3672 70.7109 61.3672C73.0547 61.3672 75.4635 60.7031 77.9375 59.375C80.4375 58.0208 82.8333 56.3281 85.125 54.2969C87.4167 52.2396 89.4349 50.1432 91.1797 48.0078C93.8359 45.0911 95.9583 42.6693 97.5469 40.7422C99.1615 38.8151 100.49 37.2005 101.531 35.8984C101.818 35.9505 102.182 36.0156 102.625 36.0938C103.068 36.1458 103.51 36.1719 103.953 36.1719C104.292 36.1719 104.76 36.1589 105.359 36.1328C105.958 36.1068 106.427 36.0677 106.766 36.0156L93.1719 52.7734C90.6979 56.1328 88.3932 59.2188 86.2578 62.0312C84.1484 64.8438 82.1693 67.4219 80.3203 69.7656C83.9141 68.0469 86.9219 66.4193 89.3438 64.8828C91.7917 63.3724 93.9531 61.7839 95.8281 60.1172C97.7031 58.4245 99.5781 56.4844 101.453 54.2969C103.328 52.1094 105.516 49.4922 108.016 46.4453L108.836 47.1094C106.674 49.7135 104.734 51.9922 103.016 53.9453C101.323 55.8984 99.6953 57.6432 98.1328 59.1797C96.5703 60.7161 94.9036 62.1354 93.1328 63.4375C91.362 64.7656 89.3438 66.0677 87.0781 67.3438C84.8125 68.6198 82.1042 70 78.9531 71.4844C75.2812 76.1198 72.0911 79.8568 69.3828 82.6953C66.7005 85.5339 64.2917 87.6953 62.1562 89.1797C60.0208 90.6901 57.9766 91.7057 56.0234 92.2266C54.0703 92.7734 52 93.0469 49.8125 93.0469ZM49.9688 91.9922C51.4271 91.9922 52.8594 91.7318 54.2656 91.2109C55.6719 90.6901 57.2214 89.7656 58.9141 88.4375C60.5807 87.1354 62.5339 85.2865 64.7734 82.8906C66.987 80.4948 69.6302 77.4219 72.7031 73.6719C66.7656 76.1979 61.9609 78.4505 58.2891 80.4297C54.5911 82.4089 51.8958 84.1927 50.2031 85.7812C48.5104 87.3958 47.6641 88.9453 47.6641 90.4297C47.6641 90.7161 47.8464 91.0417 48.2109 91.4062C48.5755 91.7969 49.1615 91.9922 49.9688 91.9922Z" fill="#487254"/>
<path d="M52.4375 62.3828C51.0052 62.3828 49.9375 62.0964 49.2344 61.5234C48.5052 60.9505 48.1406 60.2214 48.1406 59.3359C48.1406 58.6328 48.2318 57.9427 48.4141 57.2656C48.5964 56.5625 48.987 55.6771 49.5859 54.6094C50.1849 53.5417 51.0964 52.1094 52.3203 50.3125C53.5443 48.4896 55.1979 46.1068 57.2812 43.1641L67.3594 28.9844H64.2734C63.4922 28.9844 63.1016 28.8151 63.1016 28.4766C63.1016 28.0599 63.5964 27.8516 64.5859 27.8516H68.1406L75.3672 17.6953C75.7057 17.7474 76.1484 17.7995 76.6953 17.8516C77.2682 17.8776 78.0755 17.8776 79.1172 17.8516C79.638 17.8516 80.1979 17.7995 80.7969 17.6953L73.2578 27.8516H83.3359C84.0651 27.8516 84.4297 28.0339 84.4297 28.3984C84.4297 28.7891 84.1042 28.9844 83.4531 28.9844H72.3984L62.0859 42.8906C59.638 46.1719 57.6719 48.8672 56.1875 50.9766C54.7031 53.0859 53.5703 54.7526 52.7891 55.9766C52.0339 57.2005 51.513 58.112 51.2266 58.7109C50.9661 59.3099 50.8359 59.7526 50.8359 60.0391C50.8359 60.8203 51.487 61.237 52.7891 61.2891C54.5859 61.263 56.4349 60.6771 58.3359 59.5312C60.263 58.3594 62.112 56.9401 63.8828 55.2734C65.6536 53.5807 67.2422 51.9271 68.6484 50.3125C70.0547 48.6719 71.1484 47.3828 71.9297 46.4453L72.7891 47.1094C72.0339 47.9948 70.9271 49.2708 69.4688 50.9375C68.0104 52.6042 66.3307 54.3229 64.4297 56.0938C62.5547 57.8385 60.5885 59.3229 58.5312 60.5469C56.474 61.7708 54.4427 62.3828 52.4375 62.3828Z" fill="#487254"/>
<path d="M9.51562 62.3828C6.67708 62.3828 4.46354 61.862 2.875 60.8203C1.3125 59.7786 0.53125 58.5156 0.53125 57.0312C0.53125 55.8854 0.934896 55.0651 1.74219 54.5703C2.54948 54.0495 3.35677 53.7891 4.16406 53.7891C4.60677 53.7891 5.03646 53.9323 5.45312 54.2188C5.89583 54.5052 6.11719 54.9609 6.11719 55.5859C6.11719 56.0807 5.89583 56.5365 5.45312 56.9531C5.01042 57.3438 4.48958 57.5391 3.89062 57.5391C3.10938 57.5391 2.51042 57.4089 2.09375 57.1484V57.3438C2.09375 58.4896 2.74479 59.4661 4.04688 60.2734C5.375 61.0547 6.98958 61.4453 8.89062 61.4453C11.6771 61.4453 14.1901 60.7552 16.4297 59.375C18.6693 57.9688 20.7396 56.1198 22.6406 53.8281C24.5417 51.5365 26.3385 48.9974 28.0312 46.2109C29.75 43.4245 31.4557 40.625 33.1484 37.8125L33.9297 36.5234C29.8151 36.3672 26.1302 35.7552 22.875 34.6875C19.6458 33.5938 17.1198 32.1094 15.2969 30.2344C13.5 28.3594 12.6797 26.1849 12.8359 23.7109C12.9661 21.3932 13.7995 19.2578 15.3359 17.3047C16.8724 15.3255 18.9167 13.6198 21.4688 12.1875C24.0469 10.7292 26.9505 9.59635 30.1797 8.78906C33.4349 7.98177 36.8464 7.57812 40.4141 7.57812C42.3411 7.57812 44.0208 7.76042 45.4531 8.125C46.9115 8.48958 47.6406 8.85417 47.6406 9.21875C47.6406 9.32292 47.4844 9.375 47.1719 9.375C46.9896 9.375 46.8073 9.36198 46.625 9.33594C46.4688 9.28385 46.2865 9.24479 46.0781 9.21875C45.2448 9.01042 44.3854 8.84115 43.5 8.71094C42.6406 8.55469 41.599 8.47656 40.375 8.47656C37.3542 8.47656 34.3854 8.86719 31.4688 9.64844C28.5781 10.4036 25.9349 11.4844 23.5391 12.8906C21.1693 14.2969 19.2552 15.9766 17.7969 17.9297C16.3646 19.8828 15.5833 22.0573 15.4531 24.4531C15.349 26.0156 15.9609 27.6302 17.2891 29.2969C18.6432 30.9635 20.7526 32.3828 23.6172 33.5547C26.4818 34.7266 30.1276 35.3906 34.5547 35.5469C40.7786 25.7552 46.4948 18.6458 51.7031 14.2188C56.9115 9.79167 61.8594 7.57812 66.5469 7.57812C68.1094 7.57812 69.3464 7.99479 70.2578 8.82812C71.1693 9.66146 71.5859 10.8594 71.5078 12.4219C71.4036 14.4271 70.5182 16.6797 68.8516 19.1797C67.2109 21.6797 64.9714 24.1276 62.1328 26.5234C59.2943 28.9193 56.026 31.0026 52.3281 32.7734C48.6302 34.5443 44.6589 35.7031 40.4141 36.25C38.2005 39.6615 35.9479 42.9427 33.6562 46.0938C31.3646 49.2188 28.9688 52.0052 26.4688 54.4531C23.9948 56.901 21.3516 58.8411 18.5391 60.2734C15.7526 61.6797 12.7448 62.3828 9.51562 62.3828ZM41.1562 35.1562C44.9062 34.5312 48.4609 33.3724 51.8203 31.6797C55.1797 29.9609 58.1615 27.9688 60.7656 25.7031C63.3698 23.4375 65.4271 21.1198 66.9375 18.75C68.474 16.3802 69.2943 14.2188 69.3984 12.2656C69.5286 10.8594 69.2552 9.88281 68.5781 9.33594C67.901 8.78906 67.2109 8.52865 66.5078 8.55469C63.2786 8.65885 59.8411 10.612 56.1953 14.4141C52.5755 18.2161 48.487 23.6979 43.9297 30.8594C43.4609 31.5885 42.9922 32.3047 42.5234 33.0078C42.0547 33.7109 41.599 34.4271 41.1562 35.1562Z" fill="#487254"/>
</svg>
