<svg width="312" height="316" viewBox="0 0 312 316" fill="none" xmlns="http://www.w3.org/2000/svg">
<path d="M27.7923 143.033L27.3799 142.93L27.3054 141.463C27.2908 140.933 27.1184 140.51 26.7882 140.194C26.4305 139.87 25.9768 139.641 25.427 139.504L5.59507 134.573C4.86031 134.713 4.30413 134.838 3.92651 134.949C3.55572 135.032 3.23308 135.157 2.95859 135.323C2.65661 135.482 2.27918 135.71 1.82631 136.007L0.951369 136.535L0.539062 136.433L2.35091 129.114L24.4269 120.03L8.88294 116.165C8.33319 116.028 7.81454 116.002 7.32698 116.085C6.84624 116.142 6.46891 116.428 6.19499 116.945L5.48611 118.218L5.0738 118.115L6.53761 112.202L6.94992 112.305L7.04461 113.513C7.08669 114.051 7.30024 114.425 7.68525 114.638C8.07026 114.851 8.53764 115.026 9.08738 115.162L33.331 121.19L32.7578 123.505L7.20136 133.919L25.6727 138.512C26.2224 138.648 26.7102 138.682 27.136 138.612C27.5617 138.542 27.9219 138.266 28.2165 137.783L28.9359 136.645L29.3482 136.748L27.7923 143.033Z" fill="#55645C"/>
<path d="M39.2249 108.179C38.5015 109.659 37.4708 110.702 36.1329 111.31C34.8073 111.892 33.3563 111.796 31.7798 111.021C30.5847 110.433 29.7907 109.284 29.3976 107.572C28.9792 105.848 29.158 103.548 29.934 100.671C30.0573 100.225 30.2055 99.7289 30.3787 99.1814C30.5264 98.6213 30.6866 98.0358 30.8593 97.4247L27.8461 95.9437C26.117 95.0939 24.8032 94.717 23.9046 94.8131C22.9931 94.8712 22.3191 95.3466 21.8825 96.2392C21.5832 96.8513 21.5497 97.4358 21.7819 97.9928C21.9887 98.5373 22.5503 99.098 23.4667 99.675L23.8488 99.9577C24.9173 100.546 25.5873 101.208 25.8589 101.942C26.1304 102.677 26.0916 103.401 25.7424 104.115C25.4181 104.778 24.9466 105.226 24.3277 105.46C23.7089 105.694 23.0561 105.642 22.3696 105.304C21.3271 104.792 20.6244 104.004 20.2617 102.94C19.9114 101.85 19.8513 100.618 20.0815 99.2448C20.3117 97.8712 20.7698 96.4831 21.4557 95.0804C22.5657 92.8106 23.9795 91.3386 25.6969 90.6644C27.4014 89.9521 29.4997 90.2084 31.9916 91.4332L40.4208 95.5762C41.5651 96.1386 42.3991 95.8842 42.9229 94.8131L43.3345 93.9715L43.808 93.7772C44.1813 94.5617 44.3898 95.3285 44.4335 96.0775C44.4897 96.8011 44.2621 97.6857 43.7507 98.7313C43.202 99.8534 42.5112 100.621 41.6784 101.034C40.8326 101.409 39.9275 101.486 38.9632 101.266C39.4027 102.431 39.7154 103.565 39.9011 104.668C40.0739 105.734 39.8485 106.904 39.2249 108.179ZM38.0394 104.702C38.2889 104.192 38.4052 103.664 38.3884 103.118C38.3586 102.534 38.2391 101.811 38.0299 100.949L31.6221 97.7996C31.5482 98.0797 31.4744 98.3597 31.4005 98.6397C31.3266 98.9197 31.2341 99.238 31.1228 99.5946C30.8542 100.918 30.914 102.118 31.3022 103.194C31.6774 104.233 32.4753 105.052 33.6958 105.652C34.7384 106.164 35.6451 106.309 36.4161 106.087C37.1616 105.853 37.7027 105.391 38.0394 104.702Z" fill="#55645C"/>
<path d="M53.0529 84.4796C51.9968 85.9573 50.8034 86.847 49.4728 87.1489C48.1587 87.4277 46.696 86.9882 45.0848 85.8305L33.2767 77.3457L31.5688 79.7353L31.2235 79.4872L31.6795 78.5568C32.0299 77.7253 32.237 76.9481 32.3008 76.2251C32.3811 75.4791 32.3496 74.6702 32.2062 73.7984L31.094 68.7009L31.3415 68.3546L36.101 71.9318L38.8732 68.053L39.5638 68.5492L36.7668 72.4626L49.1963 81.394C50.0019 81.9728 50.7356 82.238 51.3975 82.1894C52.0758 82.1177 52.613 81.8048 53.0091 81.2507C53.3556 80.7658 53.5458 80.256 53.5796 79.7212C53.5905 79.1699 53.5207 78.5606 53.3704 77.8935L53.9632 77.7953C54.4158 78.8194 54.5835 79.9009 54.4663 81.0397C54.3491 82.1786 53.8779 83.3252 53.0529 84.4796Z" fill="#55645C"/>
<path d="M64.6224 70.5831C63.8334 71.3584 62.9563 71.922 61.9914 72.2738C61.0467 72.6058 60.0551 72.626 59.0167 72.3344C57.9787 72.0027 56.9248 71.2691 55.855 70.1337L48.3062 62.2256C47.8503 61.7591 47.4424 61.504 47.0824 61.4602C46.7223 61.4164 46.3307 61.5229 45.9075 61.7798L45.4244 62.0159L45.1271 61.7117L49.519 55.3089L50.1198 55.3149L54.1893 59.7841L61.3536 67.116C61.9878 67.7651 62.6357 68.0628 63.2971 68.0091C63.9788 67.9356 64.6029 67.6206 65.1694 67.0639C65.7359 66.5072 66.1624 65.9291 66.449 65.3294C66.7356 64.7298 66.9429 64.049 67.0709 63.2872L57.5012 53.25C57.0453 52.7835 56.6574 52.5286 56.3374 52.4852C55.9976 52.4216 55.5959 52.538 55.1322 52.8346L54.7395 53.0416L54.4423 52.7374L58.6236 46.3626L59.2244 46.3686L63.3546 50.7781L71.4107 59.0227C71.8467 59.4689 72.2443 59.7541 72.6036 59.8782C72.9628 60.0023 73.424 59.9467 73.9872 59.7113L74.3798 59.5044L74.6771 59.8086L69.6634 65.3315L67.6363 63.805C67.5038 65.0086 67.2312 66.1908 66.8187 67.3515C66.4066 68.4721 65.6745 69.5493 64.6224 70.5831Z" fill="#55645C"/>
<path d="M78.9759 56.5664L78.7401 56.2121L79.1759 55.7156C79.5527 55.2585 79.7293 54.833 79.7057 54.4392C79.7055 54.0296 79.5561 53.6004 79.2575 53.1516L71.878 42.062C71.5322 41.5423 71.1864 41.2275 70.8408 41.1175C70.503 40.968 70.067 41.0038 69.533 41.2247L68.9086 41.4378L68.6728 41.0835L73.3837 34.9599L73.9729 35.0776L76.3186 37.9117L76.5072 38.1951C76.3969 37.313 76.4202 36.4268 76.577 35.5366C76.7416 34.607 77.0241 33.7522 77.4245 32.9721C77.8484 32.1762 78.3784 31.5654 79.0145 31.1396C79.9098 30.5404 80.758 30.331 81.5593 30.5117C82.3606 30.6923 83.0127 31.1605 83.5157 31.9163C84.0501 32.7194 84.231 33.5031 84.0585 34.2672C83.8937 34.992 83.4933 35.5673 82.8572 35.9931C81.8677 36.6555 80.6659 36.7429 79.2519 36.2555L79.134 36.232C78.6784 36.059 78.2896 36.0632 77.9676 36.2446C77.6299 36.4024 77.4414 36.7333 77.4023 37.2375C77.3082 37.6078 77.2808 38.0016 77.3203 38.4191C77.3675 38.7971 77.4462 39.2224 77.5563 39.695L84.1343 49.58C84.763 50.5248 85.5682 50.8393 86.55 50.5236L87.893 50.0855L88.1288 50.4398L78.9759 56.5664Z" fill="#55645C"/>
<path d="M103.462 42.5798C101.955 43.236 100.496 43.3605 99.0843 42.9535C97.699 42.5351 96.6569 41.5183 95.9579 39.9033C95.4281 38.6789 95.5669 37.2872 96.3743 35.7282C97.1704 34.1431 98.7938 32.5074 101.244 30.8211C101.626 30.5619 102.06 30.2801 102.546 29.9757C103.02 29.6452 103.521 29.3034 104.047 28.9503L102.712 25.8634C101.945 24.092 101.189 22.9508 100.443 22.4398C99.7112 21.8914 98.8908 21.8152 97.9815 22.2112C97.3579 22.4828 96.9545 22.9061 96.7711 23.4813C96.5765 24.0305 96.6414 24.8226 96.9659 25.8578L97.074 26.3215C97.5068 27.4643 97.5891 28.4037 97.3209 29.1396C97.0527 29.8756 96.5549 30.402 95.8274 30.7188C95.1519 31.0129 94.5031 31.0478 93.8811 30.8233C93.259 30.5989 92.7958 30.135 92.4914 29.4316C92.0292 28.3636 92.004 27.3065 92.4158 26.2603C92.8536 25.2028 93.6042 24.2258 94.6674 23.3293C95.7307 22.4329 96.9769 21.6735 98.4058 21.0512C100.718 20.0443 102.746 19.8423 104.489 20.4454C106.247 21.0112 107.678 22.5705 108.783 25.1234L112.52 33.7589C113.027 34.9311 113.827 35.2797 114.918 34.8045L115.775 34.4311L116.261 34.591C116.038 35.4311 115.701 36.1506 115.25 36.7495C114.825 37.3371 114.08 37.8628 113.015 38.3267C111.872 38.8245 110.85 38.96 109.949 38.7332C109.062 38.469 108.324 37.9393 107.732 37.1441C107.314 38.3171 106.818 39.3842 106.246 40.3454C105.689 41.2693 104.761 42.014 103.462 42.5798ZM104.807 39.1609C105.327 38.9347 105.757 38.6081 106.097 38.1813C106.452 37.7172 106.828 37.0888 107.227 36.2963L104.386 29.7318C104.148 29.897 103.911 30.0622 103.674 30.2275C103.437 30.3927 103.16 30.5749 102.845 30.7741C101.785 31.6072 101.055 32.5598 100.655 33.6321C100.269 34.6669 100.346 35.8096 100.888 37.06C101.35 38.128 101.946 38.8281 102.676 39.1601C103.396 39.4662 104.106 39.4664 104.807 39.1609Z" fill="#55645C"/>
<path d="M121.494 34.8764L121.387 34.4641L121.838 34.1706C122.74 33.5837 123.055 32.768 122.785 31.7234L117.078 9.6639C116.936 9.11413 116.72 8.73036 116.43 8.5126C116.132 8.26735 115.691 8.14741 115.107 8.15277L114.541 8.16831L114.434 7.75598L121.501 4.02293L122.09 4.2655L123.419 10.0809L127.067 24.1825C127.33 25.1996 127.593 26.2167 127.856 27.2337C128.14 28.2162 128.409 29.2022 128.665 30.1918C128.808 30.7416 129.035 31.1666 129.346 31.4668C129.651 31.7395 130.085 31.8905 130.649 31.9198L131.215 31.9042L131.322 32.3166L121.494 34.8764Z" fill="#55645C"/>
<path d="M142.39 31.0703C141.38 31.2078 140.476 30.9724 139.68 30.3643C138.883 29.7562 138.418 28.9596 138.285 27.9746C138.153 26.9896 138.388 26.0835 138.99 25.2564C139.593 24.4292 140.4 23.9469 141.41 23.8094C142.421 23.672 143.326 23.9214 144.126 24.5576C144.927 25.1939 145.394 26.0045 145.526 26.9895C145.659 27.9745 145.422 28.8666 144.816 29.6656C144.209 30.4646 143.401 30.9329 142.39 31.0703Z" fill="#55645C"/>
<path d="M165.749 28.8757L165.802 28.453L166.682 28.2629C167.265 28.1643 167.662 27.9566 167.873 27.6395C168.112 27.3261 168.267 26.8875 168.338 26.3239L171.109 4.17364C171.18 3.61002 171.138 3.14679 170.984 2.78393C170.829 2.42107 170.483 2.10575 169.946 1.83795L169.187 1.39928L169.24 0.976562L179.483 2.26194C183.67 2.78737 186.594 3.94144 188.255 5.72414C189.947 7.48218 190.637 9.61525 190.323 12.1234C190.122 13.7297 189.543 15.1598 188.587 16.4138C187.663 17.643 186.266 18.5411 184.397 19.108C182.528 19.6749 180.09 19.7697 177.083 19.3924L175.65 19.2126L174.676 26.9905C174.539 28.0896 174.997 28.8769 176.05 29.3526L177.267 29.8918L177.214 30.3145L165.749 28.8757ZM175.755 18.3671L177.357 18.5681C178.734 18.7409 179.886 18.6565 180.814 18.315C181.741 17.9734 182.486 17.2654 183.049 16.1911C183.612 15.1167 184.018 13.5791 184.268 11.5783C184.522 9.54927 184.481 7.94116 184.144 6.75397C183.836 5.57031 183.258 4.7107 182.412 4.17514C181.569 3.6114 180.473 3.2449 179.125 3.07563L177.691 2.89578L175.755 18.3671Z" fill="#55645C"/>
<path d="M198.076 35.325C196.518 34.8043 195.349 33.9199 194.57 32.6716C193.818 31.4324 193.72 29.9775 194.275 28.3069C194.697 27.0405 195.727 26.0973 197.366 25.4773C199.014 24.8304 201.311 24.6998 204.257 25.0855C204.714 25.1483 205.225 25.229 205.789 25.3277C206.362 25.3995 206.962 25.4802 207.589 25.5699L208.651 22.3769C209.26 20.5447 209.458 19.1885 209.243 18.3084C209.064 17.4103 208.504 16.8042 207.564 16.49C206.919 16.2746 206.337 16.3196 205.817 16.625C205.307 16.9035 204.828 17.5368 204.38 18.5248L204.151 18.9424C203.712 20.0831 203.148 20.8376 202.458 21.2059C201.768 21.5743 201.047 21.6328 200.295 21.3814C199.597 21.148 199.091 20.7395 198.777 20.1558C198.464 19.5721 198.428 18.9164 198.67 18.1889C199.038 17.0842 199.723 16.2803 200.726 15.7772C201.756 15.283 202.965 15.0583 204.353 15.103C205.742 15.1476 207.174 15.4168 208.652 15.9105C211.043 16.7095 212.686 17.9171 213.582 19.5336C214.513 21.1321 214.539 23.2516 213.661 25.8922L210.691 34.8244C210.287 36.0369 210.65 36.8317 211.778 37.2087L212.665 37.5049L212.92 37.9495C212.195 38.4256 211.465 38.7355 210.73 38.8794C210.023 39.0322 209.118 38.9245 208.017 38.5565C206.834 38.1615 205.984 37.5779 205.464 36.8056C204.981 36.0154 204.784 35.1263 204.874 34.1383C203.781 34.7313 202.702 35.194 201.636 35.5265C200.606 35.841 199.419 35.7738 198.076 35.325ZM201.354 33.6809C201.891 33.8604 202.429 33.9052 202.966 33.8153C203.539 33.7075 204.238 33.4918 205.062 33.1683L207.32 26.3782C207.034 26.3424 206.747 26.3065 206.46 26.2706C206.174 26.2347 205.847 26.1854 205.48 26.1226C204.136 26.033 202.959 26.2532 201.947 26.7833C200.97 27.2954 200.267 28.1981 199.837 29.4915C199.469 30.5962 199.447 31.5168 199.769 32.2532C200.1 32.9626 200.629 33.4385 201.354 33.6809Z" fill="#55645C"/>
<path d="M216.521 41.4248L216.725 41.0511L217.366 41.2082C217.944 41.3313 218.402 41.291 218.739 41.0874C219.101 40.8975 219.411 40.5658 219.67 40.0924L226.055 28.3939C226.354 27.8457 226.472 27.3925 226.409 27.0343C226.385 26.6649 226.152 26.294 225.709 25.9217L225.232 25.4656L225.436 25.0918L233.028 26.4404L233.197 27.0186L231.778 30.4168L231.615 30.7158C232.343 30.209 233.137 29.8189 233.997 29.5457C234.895 29.2611 235.781 29.116 236.656 29.1102C237.555 29.1181 238.34 29.306 239.011 29.674C239.955 30.1919 240.533 30.8488 240.744 31.6446C240.955 32.4404 240.843 33.237 240.408 34.0344C239.946 34.8815 239.337 35.4055 238.582 35.6064C237.865 35.7959 237.171 35.7067 236.5 35.3387C235.457 34.7663 234.823 33.7388 234.599 32.2561L234.566 32.1405C234.508 31.6554 234.324 31.3118 234.015 31.1097C233.719 30.8826 233.339 30.8686 232.876 31.0675C232.505 31.1555 232.144 31.3137 231.793 31.5422C231.481 31.7595 231.142 32.0265 230.775 32.3434L225.083 42.7711C224.539 43.7678 224.634 44.6292 225.368 45.3554L226.376 46.346L226.172 46.7197L216.521 41.4248Z" fill="#55645C"/>
<path d="M240.216 56.7035C238.939 55.6684 238.153 54.4294 237.86 52.9865C237.588 51.5614 238.005 50.164 239.108 48.7942C239.945 47.7558 241.239 47.2341 242.991 47.2291C244.76 47.202 246.958 47.8866 249.582 49.2829C249.988 49.5022 250.438 49.7571 250.932 50.0478C251.444 50.3164 251.977 50.6028 252.533 50.907L254.643 48.289C255.854 46.7866 256.512 45.5855 256.618 44.6856C256.764 43.7815 256.452 43.0171 255.681 42.3924C255.153 41.9641 254.592 41.8018 253.998 41.9054C253.423 41.987 252.753 42.4118 251.988 43.18L251.628 43.491C250.819 44.4053 250.027 44.9138 249.252 45.0166C248.478 45.1194 247.782 44.9209 247.165 44.4212C246.593 43.9572 246.261 43.3968 246.172 42.7399C246.082 42.083 246.278 41.4563 246.759 40.8598C247.489 39.954 248.411 39.4416 249.526 39.3227C250.664 39.2217 251.875 39.4359 253.159 39.9654C254.443 40.4948 255.691 41.2503 256.903 42.2319C258.863 43.8202 259.98 45.5288 260.254 47.3575C260.568 49.182 259.852 51.1768 258.107 53.3419L252.205 60.6658C251.404 61.66 251.466 62.5319 252.391 63.2814L253.118 63.8703L253.201 64.3764C252.356 64.5675 251.564 64.6015 250.826 64.4782C250.11 64.3728 249.3 63.9543 248.397 63.2226C247.428 62.4373 246.835 61.5918 246.618 60.6859C246.442 59.7758 246.568 58.8737 246.997 57.9798C245.767 58.1514 244.594 58.2057 243.48 58.1428C242.405 58.0756 241.318 57.5958 240.216 56.7035ZM243.861 56.3149C244.301 56.6719 244.789 56.9026 245.323 57.0071C245.898 57.1075 246.628 57.1508 247.512 57.1373L251.999 51.5698C251.743 51.4355 251.487 51.3012 251.231 51.167C250.975 51.0327 250.687 50.8716 250.365 50.6838C249.138 50.128 247.958 49.9206 246.825 50.0616C245.732 50.1984 244.758 50.797 243.903 51.8574C243.173 52.7633 242.83 53.6177 242.875 54.4207C242.937 55.2017 243.266 55.8331 243.861 56.3149Z" fill="#55645C"/>
<path d="M260.727 76.0727C259.662 74.7822 258.989 73.3873 258.707 71.8883C258.448 70.3711 258.665 68.8081 259.36 67.1994C260.094 65.5944 261.411 64.004 263.309 62.428C265.229 60.834 267.091 59.8598 268.894 59.5054C270.72 59.1329 272.398 59.2508 273.93 59.8592C275.484 60.4495 276.802 61.4008 277.885 62.7133C278.517 63.4789 279.046 64.2751 279.471 65.1019C279.896 65.9286 280.182 66.7423 280.327 67.5427L284.582 64.0105C285.04 63.6301 285.316 63.2727 285.407 62.9385C285.517 62.6261 285.426 62.204 285.134 61.6722L284.751 60.9401L285.078 60.6684L291.447 65.4445L291.451 66.05L286.76 69.7227L270.755 83.0093C270.319 83.3716 270.022 83.7471 269.865 84.1357C269.73 84.5061 269.779 84.9445 270.013 85.4507L270.158 85.8275L269.831 86.0992L264.84 80.7873L265.774 79.5139C264.894 79.2493 264.018 78.8339 263.146 78.2675C262.292 77.7231 261.486 76.9915 260.727 76.0727ZM263.509 76.9705C264.268 77.8892 265.235 78.5049 266.413 78.8177L279.407 68.0308C279.262 66.7867 278.838 65.7381 278.134 64.885C277.267 63.835 275.916 63.4454 274.08 63.716C272.266 63.9686 270.061 65.1726 267.464 67.3282C264.868 69.4838 263.324 71.3553 262.832 72.9429C262.363 74.5124 262.588 75.8549 263.509 76.9705Z" fill="#55645C"/>
<path d="M295.156 83.3188C294.668 82.4861 294.509 81.6248 294.678 80.7351C294.886 79.8554 295.393 79.1783 296.199 78.7039C297.03 78.215 297.867 78.1012 298.709 78.3626C299.566 78.6485 300.238 79.2078 300.725 80.0405C301.213 80.8732 301.364 81.7222 301.181 82.5875C300.998 83.4528 300.491 84.1298 299.66 84.6187C298.854 85.0932 298.017 85.2069 297.15 84.96C296.308 84.6986 295.643 84.1515 295.156 83.3188ZM272.539 90.8027L272.905 90.5871L273.353 91.0151C273.786 91.4187 274.199 91.6199 274.593 91.6188C275 91.6422 275.449 91.5102 275.937 91.2226L287.406 84.4719C287.919 84.17 288.241 83.8491 288.37 83.5094C288.539 83.1798 288.529 82.7413 288.34 82.194L288.149 81.6149L288.515 81.3993L294.611 86.8499L294.459 87.4329L289.191 90.3853L278.931 96.4242C278.443 96.7118 278.102 97.0276 277.909 97.3716C277.731 97.74 277.704 98.2001 277.83 98.7517L277.935 99.1838L277.568 99.3995L272.539 90.8027Z" fill="#55645C"/>
<path d="M282.29 110.929C281.762 109.643 281.445 108.422 281.338 107.268C281.206 106.125 281.185 105.029 281.274 103.978L285.965 102.086L286.127 102.48L284.32 104.793C283.509 105.804 282.982 106.758 282.739 107.657C282.532 108.572 282.65 109.568 283.092 110.644C283.609 111.905 284.299 112.802 285.162 113.336C286.061 113.886 286.983 113.966 287.925 113.577C288.79 113.22 289.384 112.652 289.707 111.873C290.031 111.095 290.108 109.865 289.939 108.184L289.77 106.319C289.584 104.522 289.8 102.959 290.418 101.629C291.036 100.299 292.065 99.336 293.506 98.741C295.234 98.0269 296.981 98.1038 298.746 98.9716C300.512 99.8394 301.917 101.547 302.963 104.094C303.383 105.118 303.659 106.125 303.79 107.116C303.957 108.121 303.991 109.136 303.891 110.16L299.551 111.677L299.389 111.283L301.259 108.898C301.919 108.042 302.316 107.294 302.452 106.655C302.624 106.031 302.511 105.233 302.112 104.261C301.746 103.368 301.152 102.631 300.331 102.049C299.51 101.466 298.641 101.365 297.725 101.743C296.834 102.111 296.262 102.731 296.008 103.604C295.764 104.503 295.689 105.701 295.783 107.198L296 109.182C296.2 111.31 295.956 112.993 295.269 114.229C294.608 115.454 293.57 116.359 292.156 116.943C290.244 117.733 288.399 117.604 286.622 116.557C284.855 115.536 283.411 113.66 282.29 110.929Z" fill="#55645C"/>
<path d="M311.088 130.441C311.479 132.245 311.439 133.867 310.969 135.306C310.526 136.74 309.741 137.929 308.612 138.873C307.517 139.839 306.167 140.497 304.562 140.848C304.257 140.914 303.936 140.97 303.598 141.014C303.288 141.053 302.999 141.058 302.732 141.029L300.042 128.625C297.059 129.305 295.015 130.304 293.909 131.621C292.837 132.96 292.523 134.656 292.969 136.709C293.27 138.097 293.735 139.172 294.364 139.936C294.993 140.699 295.818 141.362 296.839 141.924L296.555 142.422C294.847 141.894 293.407 141.002 292.236 139.747C291.071 138.519 290.272 136.906 289.839 134.908C289.412 132.938 289.448 131.099 289.947 129.391C290.474 127.677 291.433 126.218 292.824 125.013C294.215 123.809 296.003 122.967 298.19 122.49C300.459 121.994 302.491 122.074 304.285 122.728C306.107 123.377 307.601 124.387 308.768 125.76C309.941 127.16 310.715 128.721 311.088 130.441ZM310.23 130.498C310.056 129.693 309.656 129.054 309.032 128.58C308.441 128.127 307.487 127.871 306.169 127.81C304.885 127.771 303.12 127.982 300.872 128.444L302.415 135.562C305.492 135.18 307.641 134.595 308.861 133.805C310.081 133.015 310.537 131.913 310.23 130.498Z" fill="#55645C"/>
<path d="M292.541 154.682C292.479 153.662 292.78 152.775 293.443 152.023C294.107 151.271 294.933 150.864 295.923 150.803C296.912 150.742 297.796 151.043 298.574 151.706C299.352 152.37 299.772 153.212 299.835 154.232C299.897 155.253 299.582 156.14 298.89 156.894C298.199 157.648 297.358 158.055 296.369 158.116C295.379 158.178 294.51 157.875 293.76 157.21C293.01 156.545 292.604 155.703 292.541 154.682Z" fill="#55645C"/>
<path d="M0.951369 159.69L1.37211 159.631L1.78997 160.475C2.06463 161.01 2.36798 161.341 2.70002 161.466C3.06011 161.588 3.53467 161.607 4.12372 161.524L26.1286 158.436C26.6896 158.358 27.1127 158.212 27.3977 158C27.7147 157.812 27.9342 157.437 28.0562 156.875L28.2998 155.852L28.7205 155.793L30.4003 167.859C30.8623 171.178 30.5855 173.812 29.57 175.761C28.5825 177.706 26.9808 178.834 24.7648 179.145C23.5306 179.319 22.2319 179.028 20.8685 178.273C19.5051 177.518 18.3478 176.189 17.3966 174.287L6.60042 181.781C6.15882 182.101 5.80528 182.437 5.53981 182.79C5.3063 183.167 5.11454 183.638 4.96454 184.204L4.83052 184.782L4.45185 184.835L3.40053 177.283L15.7847 169.179L15.3853 166.31L4.99296 167.768C4.46002 167.843 4.037 167.989 3.72389 168.205C3.41079 168.421 3.20729 168.808 3.11339 169.366L2.87568 170.431L2.45493 170.49L0.951369 159.69ZM16.2268 166.192L16.5088 168.217C16.7907 170.242 17.5272 171.63 18.7184 172.38C19.9376 173.127 21.6131 173.351 23.7449 173.051C25.9047 172.748 27.4448 172.102 28.3652 171.113C29.3136 170.119 29.6488 168.624 29.3708 166.627L29.0595 164.391L16.2268 166.192Z" fill="#55645C"/>
<path d="M29.3991 193.672C29.9913 195.42 30.1349 197.035 29.83 198.519C29.5519 199.994 28.9054 201.264 27.8905 202.33C26.9115 203.414 25.6444 204.221 24.089 204.751C23.794 204.852 23.4811 204.944 23.1502 205.027C22.8461 205.1 22.5597 205.138 22.291 205.14L18.2186 193.121C15.3315 194.135 13.413 195.359 12.4629 196.793C11.5487 198.245 11.4288 199.966 12.1029 201.955C12.5585 203.3 13.142 204.315 13.8535 205.003C14.565 205.69 15.4594 206.255 16.5367 206.697L16.3113 207.224C14.554 206.893 13.0228 206.171 11.7177 205.056C10.4218 203.968 9.44582 202.457 8.78985 200.521C8.14299 198.612 7.97126 196.78 8.27466 195.027C8.60487 193.265 9.39302 191.706 10.6391 190.351C11.8852 188.997 13.5675 187.958 15.686 187.235C17.8849 186.486 19.9126 186.334 21.7691 186.781C23.6524 187.218 25.2514 188.053 26.5661 189.284C27.8899 190.542 28.8343 192.005 29.3991 193.672ZM28.5536 193.825C28.2894 193.045 27.8203 192.456 27.1463 192.056C26.5082 191.673 25.5311 191.527 24.2151 191.615C22.935 191.722 21.2043 192.132 19.0231 192.846L21.3599 199.743C24.374 199.015 26.4426 198.19 27.5658 197.267C28.689 196.344 29.0183 195.197 28.5536 193.825Z" fill="#55645C"/>
<path d="M95.1492 304.503C94.2475 304.026 93.6488 303.308 93.3531 302.349C93.0574 301.39 93.1409 300.471 93.6036 299.591C94.0663 298.712 94.7826 298.112 95.7525 297.79C96.7224 297.468 97.6582 297.545 98.5598 298.022C99.4615 298.499 100.054 299.23 100.336 300.214C100.619 301.198 100.528 302.13 100.066 303.009C99.603 303.889 98.8934 304.477 97.9367 304.773C96.98 305.07 96.0508 304.98 95.1492 304.503Z" fill="#55645C"/>
<path d="M113.223 308.295C113.223 308.295 113.244 308.028 113.321 307.88C113.587 307.374 114.783 307.789 114.783 307.789C115.312 307.768 115.732 307.591 116.044 307.256C116.362 306.893 116.587 306.436 116.717 305.883L121.421 285.941C121.274 285.206 121.144 284.649 121.029 284.272C120.942 283.901 120.814 283.579 120.646 283.306C120.484 283.005 120.252 282.629 119.951 282.178L119.415 281.307L119.513 280.892L126.83 282.625L136.125 304.658L139.812 289.027C139.943 288.475 139.963 287.954 139.875 287.466C139.814 286.985 139.524 286.61 139.005 286.341L137.729 285.645L137.827 285.23L143.739 286.63L143.641 287.045L142.437 287.154C141.901 287.202 141.53 287.421 141.322 287.809C141.114 288.198 140.944 288.668 140.814 289.221L135.064 313.6L132.748 313.051L122.09 287.544L117.709 306.118C117.579 306.671 117.551 307.16 117.625 307.587C117.699 308.013 117.978 308.371 118.463 308.661L119.605 309.369L119.507 309.784L113.223 308.295Z" fill="#55645C"/>
<path d="M151.1 291.6C150.139 291.531 149.341 291.174 148.706 290.53C148.102 289.86 147.833 289.058 147.9 288.123C147.97 287.16 148.351 286.404 149.043 285.856C149.764 285.31 150.605 285.072 151.565 285.141C152.526 285.211 153.309 285.566 153.916 286.208C154.523 286.85 154.792 287.652 154.722 288.615C154.655 289.55 154.274 290.305 153.579 290.882C152.887 291.43 152.06 291.669 151.1 291.6ZM144.421 314.525L144.452 314.1L145.057 313.972C145.635 313.843 146.034 313.616 146.257 313.29C146.507 312.966 146.653 312.521 146.694 311.955L147.652 298.655C147.695 298.06 147.614 297.613 147.408 297.313C147.233 296.988 146.867 296.748 146.31 296.593L145.726 296.423L145.757 295.998L153.691 294.051L154.085 294.506L153.523 300.531L152.665 312.428C152.624 312.995 152.69 313.455 152.864 313.809C153.065 314.166 153.428 314.448 153.952 314.657L154.367 314.815L154.336 315.24L144.421 314.525Z" fill="#55645C"/>
<path d="M160.395 315.722L160.363 315.297L160.943 315.082C161.91 314.723 162.352 313.991 162.268 312.887L161.258 299.591C161.21 298.968 161.077 298.523 160.858 298.255C160.637 297.959 160.239 297.775 159.666 297.706L159.018 297.584L158.985 297.16L166.042 294.14L166.498 294.532L167.03 297.055C167.952 296.101 169.012 295.294 170.212 294.632C171.411 293.97 172.618 293.593 173.833 293.5C175.697 293.356 177.161 293.757 178.227 294.7C179.321 295.642 179.948 297.16 180.107 299.256L181.036 311.489C181.12 312.594 181.709 313.246 182.804 313.447L183.195 313.545L183.227 313.97L173.23 314.737L173.198 314.312L173.736 314.1C174.701 313.713 175.142 312.981 175.06 311.905L174.031 298.355C173.893 296.543 172.921 295.706 171.114 295.844C169.871 295.94 168.563 296.667 167.189 298.025L168.286 312.468C168.37 313.572 168.917 314.228 169.927 314.435L170.318 314.533L170.35 314.958L160.395 315.722Z" fill="#55645C"/>
<path d="M189.37 312.906L189.258 312.495L189.705 312.195C190.599 311.596 190.903 310.776 190.619 309.735L184.629 287.796C184.472 287.221 184.26 286.823 183.994 286.601C183.728 286.38 183.303 286.276 182.72 286.289L182.06 286.294L181.948 285.883L188.677 282.134L189.434 282.323L190.851 288.161L192.254 293.297C192.993 292.24 193.834 291.287 194.777 290.439C195.74 289.556 196.891 288.93 198.229 288.563C200.005 288.074 201.55 288.194 202.865 288.923C204.207 289.643 205.166 291.058 205.742 293.167L208.905 304.753C209.055 305.301 209.283 305.709 209.592 305.978C209.9 306.246 210.35 306.388 210.941 306.402L211.302 306.435L211.415 306.846L201.827 309.481L201.714 309.071L202.172 308.812C203.066 308.213 203.367 307.38 203.075 306.311L199.553 293.411C199.254 292.315 198.857 291.614 198.362 291.309C197.895 290.995 197.197 290.966 196.268 291.222C195.667 291.387 195.045 291.69 194.402 292.132C193.752 292.546 193.137 293.143 192.556 293.921L196.46 308.218C196.752 309.286 197.43 309.836 198.496 309.867L198.846 309.859L198.958 310.27L189.37 312.906Z" fill="#55645C"/>
<path d="M234.561 295.971L234.337 295.609L235.592 294.324C236.443 293.492 236.562 292.581 235.949 291.593L223.16 270.978L220.093 272.891C219.203 273.447 218.716 274.086 218.63 274.808C218.529 275.506 218.517 276.4 218.593 277.49L218.865 280.832L218.504 281.057L215.027 275.05L235.842 262.06L239.643 267.865L239.282 268.09L236.413 266.369C235.496 265.804 234.703 265.413 234.034 265.195C233.35 264.953 232.563 265.11 231.673 265.665L228.607 267.578L241.396 288.193C242.009 289.182 242.876 289.477 243.997 289.079L245.7 288.517L245.925 288.879L234.561 295.971Z" fill="#55645C"/>
<path d="M255.808 281.861L255.517 281.551L255.772 281.077C256.282 280.128 256.168 279.26 255.431 278.475L239.888 261.909C239.48 261.475 239.107 261.223 238.769 261.152C238.43 261.082 238.006 261.189 237.497 261.475L236.916 261.789L236.625 261.479L240.82 255.006L241.577 254.818L245.557 259.309L249.195 263.186C249.355 261.905 249.653 260.669 250.09 259.476C250.528 258.244 251.253 257.151 252.264 256.197C253.605 254.932 255.026 254.312 256.528 254.337C258.051 254.343 259.559 255.143 261.053 256.735L269.261 265.483C269.649 265.896 270.042 266.15 270.44 266.242C270.838 266.334 271.301 266.248 271.83 265.983L272.165 265.842L272.456 266.152L265.215 272.985L264.924 272.675L265.208 272.231C265.718 271.282 265.595 270.405 264.838 269.598L255.698 259.858C254.922 259.03 254.244 258.598 253.664 258.56C253.105 258.503 252.475 258.805 251.773 259.467C251.319 259.896 250.912 260.456 250.55 261.148C250.169 261.82 249.903 262.635 249.754 263.595L259.883 274.39C260.64 275.197 261.496 275.364 262.452 274.89L262.758 274.719L263.049 275.029L255.808 281.861Z" fill="#55645C"/>
<path d="M281.451 255.737C280.805 256.635 280.036 257.34 279.145 257.851C278.27 258.34 277.296 258.529 276.224 258.419C275.144 258.269 273.981 257.726 272.734 256.789L263.954 250.285C263.425 249.903 262.98 249.721 262.618 249.739C262.255 249.758 261.888 249.929 261.514 250.255L261.078 250.57L260.733 250.321L263.975 243.263L264.569 243.166L269.337 246.875L277.641 252.878C278.376 253.409 279.065 253.592 279.708 253.426C280.367 253.238 280.929 252.821 281.393 252.176C281.857 251.53 282.179 250.888 282.36 250.248C282.54 249.609 282.629 248.902 282.626 248.13L271.492 239.872C270.964 239.49 270.539 239.305 270.216 239.317C269.87 239.312 269.494 239.496 269.087 239.867L268.736 240.138L268.391 239.889L271.43 232.894L272.023 232.797L276.842 236.438L286.179 243.187C286.685 243.553 287.125 243.766 287.5 243.827C287.875 243.888 288.32 243.754 288.835 243.426L289.187 243.155L289.532 243.405L285.528 249.702L283.271 248.544C283.345 249.752 283.277 250.964 283.067 252.178C282.851 253.352 282.312 254.538 281.451 255.737Z" fill="#55645C"/>
<path d="M296.069 232.345C295.368 233.835 294.353 234.894 293.025 235.522C291.708 236.125 290.256 236.051 288.668 235.3C287.464 234.731 286.653 233.594 286.234 231.889C285.789 230.171 285.933 227.868 286.665 224.98C286.781 224.532 286.922 224.034 287.087 223.484C287.226 222.921 287.377 222.333 287.541 221.72L284.505 220.285C282.763 219.462 281.444 219.105 280.547 219.215C279.637 219.287 278.97 219.773 278.547 220.672C278.257 221.288 278.232 221.873 278.473 222.427C278.688 222.968 279.258 223.52 280.183 224.083L280.57 224.36C281.647 224.932 282.327 225.583 282.609 226.313C282.892 227.043 282.864 227.768 282.526 228.488C282.212 229.155 281.747 229.611 281.132 229.854C280.517 230.097 279.863 230.055 279.172 229.728C278.122 229.232 277.407 228.454 277.028 227.396C276.661 226.312 276.582 225.082 276.792 223.705C277.001 222.328 277.438 220.933 278.103 219.52C279.178 217.233 280.569 215.74 282.276 215.039C283.97 214.301 286.071 214.525 288.582 215.712L297.073 219.725C298.226 220.27 299.056 220.003 299.563 218.924L299.962 218.076L300.432 217.875C300.818 218.653 301.038 219.417 301.093 220.165C301.16 220.888 300.946 221.776 300.451 222.829C299.919 223.959 299.24 224.738 298.413 225.163C297.573 225.551 296.67 225.642 295.702 225.436C296.159 226.594 296.489 227.724 296.692 228.824C296.881 229.887 296.673 231.061 296.069 232.345ZM294.831 228.887C295.072 228.373 295.181 227.843 295.156 227.297C295.117 226.714 294.986 225.993 294.764 225.134L288.309 222.083C288.24 222.364 288.17 222.645 288.1 222.926C288.031 223.208 287.943 223.527 287.837 223.885C287.589 225.212 287.667 226.411 288.071 227.482C288.462 228.514 289.273 229.321 290.502 229.902C291.552 230.399 292.461 230.53 293.229 230.296C293.97 230.05 294.504 229.58 294.831 228.887Z" fill="#55645C"/>
<path d="M303.893 213.167L303.482 213.059L303.469 212.439C303.446 211.405 302.901 210.748 301.833 210.467L288.972 207.086C288.369 206.928 287.905 206.909 287.581 207.029C287.23 207.142 286.927 207.459 286.674 207.98L286.347 208.554L285.937 208.446L285.398 200.773L285.917 200.469L288.468 200.788C287.871 199.603 287.456 198.334 287.225 196.981C286.993 195.628 287.032 194.361 287.342 193.18C287.816 191.367 288.672 190.109 289.91 189.407C291.155 188.677 292.791 188.579 294.818 189.112L306.652 192.223C307.721 192.503 308.529 192.158 309.076 191.186L309.296 190.848L309.707 190.956L307.161 200.681L306.75 200.573L306.726 199.994C306.677 198.953 306.131 198.296 305.09 198.022L291.983 194.576C290.229 194.115 289.123 194.764 288.663 196.522C288.346 197.731 288.604 199.208 289.435 200.954L303.406 204.626C304.474 204.907 305.271 204.603 305.797 203.713L306.017 203.375L306.428 203.483L303.893 213.167Z" fill="#55645C"/>
<path d="M17.5569 224.648C16.6988 223.173 16.3972 221.806 16.6521 220.547C16.9204 219.311 17.8613 218.224 19.4749 217.285L31.2998 210.407L29.912 208.021L30.2578 207.82L30.8788 208.569C31.4558 209.19 32.0416 209.667 32.6363 210C33.2443 210.355 33.9494 210.639 34.7515 210.852L39.5471 211.857L39.7482 212.202L34.8473 214.914L37.0999 218.787L36.4084 219.189L34.1357 215.282L21.6884 222.523C20.8816 222.992 20.3713 223.52 20.1576 224.107C19.9572 224.717 20.0179 225.299 20.3397 225.852C20.6213 226.336 20.9846 226.696 21.4296 226.93C21.8977 227.152 22.4465 227.326 23.0759 227.454L22.9313 228C21.8794 227.995 20.8883 227.723 19.958 227.185C19.0277 226.646 18.2273 225.801 17.5569 224.648Z" fill="#55645C"/>
<path d="M23.6955 238.342L24.0438 238.145L24.4781 238.589C24.8796 238.975 25.2655 239.171 25.636 239.176C26.0195 239.204 26.4319 239.094 26.8731 238.845L37.7762 232.691C38.2871 232.402 38.6062 232.1 38.7336 231.783C38.8973 231.476 38.8945 231.064 38.7252 230.548L38.5696 229.946L38.918 229.75L44.3202 234.601L44.1684 235.146L41.3497 237.15L41.071 237.308C41.9047 237.266 42.7329 237.349 43.5554 237.559C44.4142 237.778 45.1947 238.103 45.897 238.534C46.6123 238.987 47.147 239.528 47.5009 240.155C47.999 241.037 48.1353 241.848 47.9098 242.588C47.6842 243.328 47.1999 243.907 46.4568 244.327C45.6672 244.772 44.9207 244.887 44.2173 244.672C43.5503 244.467 43.0398 244.051 42.6859 243.424C42.1354 242.448 42.138 241.314 42.694 240.02L42.7243 239.911C42.9183 239.495 42.9418 239.13 42.7946 238.815C42.6706 238.487 42.374 238.287 41.9047 238.215C41.5646 238.101 41.1977 238.047 40.8041 238.055C40.4468 238.073 40.043 238.117 39.5928 238.188L29.8741 243.673C28.9452 244.198 28.594 244.932 28.8205 245.876L29.1362 247.167L28.7879 247.364L23.6955 238.342Z" fill="#55645C"/>
<path d="M56.8178 252.877C57.807 254.3 58.3561 255.721 58.4649 257.139C58.5957 258.542 58.3401 259.857 57.6981 261.082C57.0932 262.315 56.1557 263.372 54.8857 264.255C54.6448 264.422 54.3854 264.586 54.1074 264.747C53.8513 264.893 53.6019 265.001 53.3592 265.072L46.5562 255.284C44.2065 256.95 42.7877 258.553 42.2997 260.094C41.8489 261.641 42.1866 263.225 43.3128 264.845C44.0738 265.94 44.8653 266.705 45.6875 267.141C46.5096 267.576 47.4656 267.853 48.5553 267.973L48.488 268.507C46.8118 268.665 45.2387 268.41 43.7684 267.744C42.3134 267.099 41.0381 265.988 39.9423 264.411C38.8617 262.857 38.2314 261.249 38.0512 259.588C37.893 257.912 38.202 256.3 38.9784 254.754C39.7547 253.208 41.0078 251.834 42.7377 250.631C44.5333 249.383 46.3291 248.72 48.1251 248.64C49.943 248.546 51.6066 248.884 53.1158 249.653C54.6402 250.445 55.8742 251.52 56.8178 252.877ZM56.0924 253.235C55.651 252.6 55.0735 252.19 54.3597 252.004C53.6831 251.825 52.7608 251.946 51.5928 252.368C50.4619 252.797 49.002 253.617 47.2131 254.828L51.1168 260.444C53.6558 259.004 55.3139 257.722 56.091 256.597C56.8681 255.473 56.8686 254.352 56.0924 253.235Z" fill="#55645C"/>
<path d="M53.9164 280.157C52.8118 279.075 52.1865 277.846 52.0407 276.471C51.9139 275.114 52.4291 273.846 53.5864 272.665C54.4637 271.77 55.7234 271.399 57.3655 271.552C59.0263 271.686 61.0241 272.524 63.3591 274.066C63.7198 274.307 64.1186 274.586 64.5555 274.902C65.011 275.199 65.4857 275.515 65.9793 275.849L68.1912 273.593C69.4604 272.298 70.1852 271.234 70.3654 270.403C70.5833 269.571 70.3589 268.828 69.6924 268.175C69.2353 267.727 68.7241 267.525 68.1588 267.568C67.6122 267.592 66.9462 267.929 66.1607 268.578L65.7956 268.836C64.9549 269.618 64.167 270.022 63.4318 270.048C62.6966 270.075 62.0624 269.826 61.5292 269.304C61.034 268.818 60.7738 268.265 60.7487 267.643C60.7236 267.021 60.963 266.453 61.467 265.938C62.2323 265.157 63.1429 264.762 64.1988 264.751C65.2737 264.759 66.3894 265.069 67.5458 265.679C68.7023 266.29 69.8042 267.108 70.8517 268.135C72.5467 269.796 73.4406 271.494 73.5335 273.228C73.6641 274.961 72.8148 276.761 70.9855 278.628L64.7979 284.941C63.958 285.798 63.938 286.619 64.7379 287.403L65.3663 288.019L65.3995 288.499C64.5896 288.602 63.8444 288.562 63.1637 288.38C62.5021 288.217 61.7808 287.753 61 286.988C60.162 286.166 59.6821 285.323 59.5602 284.456C59.4761 283.59 59.6751 282.758 60.1574 281.961C58.9887 282.011 57.885 281.956 56.8463 281.797C55.8453 281.637 54.8686 281.09 53.9164 280.157ZM57.3669 280.122C57.7478 280.496 58.1841 280.755 58.6759 280.901C59.2053 281.047 59.8853 281.153 60.7156 281.22L65.4193 276.421C65.1916 276.272 64.9638 276.124 64.736 275.975C64.5082 275.827 64.2519 275.65 63.967 275.445C62.8669 274.815 61.7796 274.515 60.705 274.545C59.6682 274.574 58.7018 275.046 57.8059 275.96C57.0406 276.741 56.6429 277.509 56.6127 278.263C56.6013 278.999 56.8527 279.618 57.3669 280.122Z" fill="#55645C"/>
<path d="M74.2575 297.097C72.898 296.065 72.0939 294.92 71.845 293.659C71.6174 292.415 72.0679 291.05 73.1964 289.563L81.4666 278.666L79.268 276.997L79.5098 276.679L80.3713 277.132C81.1426 277.483 81.8667 277.698 82.5436 277.776C83.2418 277.871 84.0018 277.862 84.8238 277.749L89.6371 276.832L89.9558 277.074L86.4747 281.463L90.0434 284.171L89.5597 284.808L85.9592 282.076L77.2538 293.546C76.6895 294.29 76.4216 294.974 76.4501 295.598C76.4998 296.238 76.7795 296.752 77.2893 297.138C77.7354 297.477 78.209 297.669 78.7101 297.715C79.2273 297.739 79.8009 297.689 80.4309 297.564L80.5078 298.125C79.5348 298.525 78.5154 298.655 77.4495 298.515C76.3836 298.376 75.3196 297.903 74.2575 297.097Z" fill="#55645C"/>
</svg>
