<svg width="41" height="40" viewBox="0 0 41 40" fill="none" xmlns="http://www.w3.org/2000/svg">
<g clip-path="url(#clip0_56_13103)">
<path d="M28.7734 39.75H38.1484" stroke="#487254" stroke-width="1.25" stroke-miterlimit="10" stroke-linecap="round" stroke-linejoin="round"/>
<path d="M29.5234 26.75C29.5234 24.75 27.8984 23.25 26.0234 23.25C24.0234 23.25 22.5234 24.875 22.5234 26.75V39.75H27.2734C27.2734 39.75 27.2734 34.25 27.2734 32.625C27.1484 31.125 29.5234 28.75 29.5234 26.75Z" stroke="#487254" stroke-width="1.25" stroke-miterlimit="10" stroke-linecap="round" stroke-linejoin="round"/>
<path d="M2.14844 26.75C2.14844 24.75 3.77344 23.25 5.64844 23.25C7.52344 23.25 9.14844 24.875 9.14844 26.75V39.75H4.39844C4.39844 39.75 4.39844 34.25 4.39844 32.625C4.39844 31.125 2.14844 28.75 2.14844 26.75Z" stroke="#487254" stroke-width="1.25" stroke-miterlimit="10" stroke-linecap="round" stroke-linejoin="round"/>
<path d="M25.6484 23.25V20.875C25.6484 18.25 21.3984 16.125 16.2734 16.125C11.1484 16.125 6.77344 18.25 6.77344 20.875V23.25" stroke="#487254" stroke-width="1.25" stroke-miterlimit="10" stroke-linecap="round" stroke-linejoin="round"/>
<path d="M9.14844 30.25C9.14844 29 12.1484 27.875 15.7734 27.875C19.3984 27.875 22.3984 28.875 22.3984 30.25" stroke="#487254" stroke-width="1.25" stroke-miterlimit="10" stroke-linecap="round" stroke-linejoin="round"/>
<path d="M9.14844 37.375H22.5234" stroke="#487254" stroke-width="1.25" stroke-miterlimit="10" stroke-linecap="round" stroke-linejoin="round"/>
<path d="M32.6484 39.75V16.125" stroke="#487254" stroke-width="1.25" stroke-miterlimit="10" stroke-linecap="round" stroke-linejoin="round"/>
<path d="M38.1484 16.125H27.1484V15.375L30.3984 6.75H35.0234L38.1484 15.375V16.125Z" stroke="#487254" stroke-width="1.25" stroke-miterlimit="10" stroke-linecap="round" stroke-linejoin="round"/>
<path d="M35.8984 16.125V22.375" stroke="#487254" stroke-width="1.25" stroke-miterlimit="10" stroke-linecap="round" stroke-linejoin="round"/>
</g>
<defs>
<clipPath id="clip0_56_13103">
<rect width="40" height="40" fill="white" transform="translate(0.523438)"/>
</clipPath>
</defs>
</svg>
