<svg width="41" height="40" viewBox="0 0 41 40" fill="none" xmlns="http://www.w3.org/2000/svg">
<g clip-path="url(#clip0_56_13060)">
<path d="M2.14844 26H37.6484" stroke="#487254" stroke-width="1.25" stroke-miterlimit="10" stroke-linecap="round" stroke-linejoin="round"/>
<path d="M0.898438 13.6246C0.898438 13.6246 1.52344 11.9996 3.52344 13.6246C3.52344 13.6246 4.89844 11.9996 6.52344 13.6246" stroke="#487254" stroke-width="1.25" stroke-miterlimit="10" stroke-linecap="round" stroke-linejoin="round"/>
<path d="M4.27344 17.625C4.27344 17.625 5.27344 16.5 6.39844 16.5C7.52344 16.5 8.27344 17.625 8.27344 17.625C8.27344 17.625 8.64844 16.5 10.1484 16.5C11.6484 16.5 12.3984 17.625 12.3984 17.625" stroke="#487254" stroke-width="1.25" stroke-miterlimit="10" stroke-linecap="round" stroke-linejoin="round"/>
<path d="M23.1484 26L30.8984 18.125L33.5234 19.875L38.0234 15.25L41.0234 17.625" stroke="#487254" stroke-width="1.25" stroke-miterlimit="10" stroke-linecap="round" stroke-linejoin="round"/>
<path d="M9.39844 26C9.39844 26 11.5234 19.875 17.7734 19.875C24.0234 19.875 25.5234 23.625 25.5234 23.625" stroke="#487254" stroke-width="1.25" stroke-miterlimit="10" stroke-linecap="round" stroke-linejoin="round"/>
<path d="M29.8984 26C29.8984 26 32.7734 26.625 32.1484 29.5C31.6484 31.875 23.7734 36.125 9.39844 37" stroke="#487254" stroke-width="1.25" stroke-miterlimit="10" stroke-linecap="round" stroke-linejoin="round"/>
<path d="M13.2734 28.625H16.1484" stroke="#487254" stroke-width="1.25" stroke-miterlimit="10" stroke-linecap="round" stroke-linejoin="round"/>
<path d="M18.6484 27.875H21.5234" stroke="#487254" stroke-width="1.25" stroke-miterlimit="10" stroke-linecap="round" stroke-linejoin="round"/>
<path d="M16.1484 30.875H19.8984" stroke="#487254" stroke-width="1.25" stroke-miterlimit="10" stroke-linecap="round" stroke-linejoin="round"/>
<path d="M14.3984 33.375H16.5234" stroke="#487254" stroke-width="1.25" stroke-miterlimit="10" stroke-linecap="round" stroke-linejoin="round"/>
</g>
<defs>
<clipPath id="clip0_56_13060">
<rect width="40" height="40" fill="white" transform="translate(0.523438)"/>
</clipPath>
</defs>
</svg>
