<svg width="261" height="96" viewBox="0 0 261 96" fill="none" xmlns="http://www.w3.org/2000/svg">
<g clip-path="url(#clip0_4_7819)">
<path d="M181.036 16.0849C176.35 16.0849 172.908 12.4254 169.757 9.0734C168.219 7.43896 166.767 5.89317 165.199 4.73521C158.77 -0.0157567 154.706 3.68251 149.565 8.36422C145.537 12.032 140.959 16.1874 134.852 15.2649C130.308 14.5862 126.76 11.4032 123.332 8.3393C117.844 3.41935 113.513 -0.475614 106.487 6.40013C105.631 7.27243 104.821 8.18779 104.058 9.14266C102.057 11.5583 99.9888 14.0571 96.6632 15.2871C91.9163 17.0406 86.9278 15.5641 82.6251 11.1317C81.8867 10.3727 81.1899 9.56097 80.4959 8.74929C78.3362 6.22837 76.2959 3.84596 72.9147 2.99826C69.2699 2.08408 66.0109 3.20881 62.3494 6.64114C61.5888 7.35586 60.831 8.17307 60.0287 9.04016C57.1251 12.1761 53.83 15.7303 48.7222 15.9852C43.1314 16.2622 39.4643 12.2149 36.5079 8.95428C35.9083 8.29497 35.3226 7.65505 34.748 7.0733C29.7679 2.05085 23.9883 1.60761 18.8833 5.86547C17.9228 6.66607 16.9401 7.6412 15.9213 8.66896C12.3598 12.237 7.92931 16.6805 1.5307 15.4921C1.36367 15.4681 1.20323 15.4107 1.05901 15.3232C0.914776 15.2358 0.789754 15.1202 0.69144 14.9833C0.593127 14.8464 0.523547 14.6911 0.486902 14.5267C0.450258 14.3623 0.447297 14.1922 0.478194 14.0267C0.50909 13.8611 0.573217 13.7035 0.666703 13.5633C0.760189 13.4231 0.881108 13.3032 1.0222 13.2108C1.1633 13.1184 1.32164 13.0555 1.48774 13.0257C1.65383 12.9959 1.82426 13 1.98874 13.0376C7.08265 13.9712 10.6748 10.3837 14.1475 6.90431C15.219 5.835 16.2295 4.82108 17.276 3.94845C23.3193 -1.09616 30.695 -0.567028 36.5274 5.3142C37.127 5.92088 37.7349 6.5885 38.3595 7.27552C41.2409 10.4391 44.239 13.7025 48.6 13.4919C52.6918 13.2842 55.49 10.2646 58.1966 7.34477C59.0293 6.44445 59.815 5.59675 60.6422 4.82109C63.3432 2.28631 67.6154 -0.910551 73.5283 0.5743C77.6922 1.61868 80.0851 4.41663 82.4114 7.12593C83.0748 7.89883 83.7327 8.66895 84.435 9.39199C86.9611 11.9932 90.9807 14.7164 95.8165 12.9324C98.5119 11.9351 100.28 9.79921 102.154 7.53869C102.97 6.5172 103.839 5.5389 104.758 4.60777C113.455 -3.92735 119.607 1.59098 125.022 6.45829C128.176 9.28671 131.44 12.2149 135.241 12.7828C140.185 13.5224 143.932 10.115 147.899 6.50817C152.929 1.93173 158.631 -3.25417 166.709 2.71294C168.461 4.00941 170.06 5.70757 171.603 7.35032C176.045 12.0597 179.862 16.1348 186.746 11.4724C188.331 10.3976 189.888 8.84071 191.535 7.18964C196.143 2.56611 201.903 -3.20708 210.231 2.17274C212.291 3.49968 214.156 5.44716 215.958 7.33093C220.591 12.1733 224.591 16.3564 231.367 11.0874C232.711 10.043 233.882 8.72436 235.12 7.33093C237.618 4.53298 240.178 1.64362 244.422 0.701737C251.951 -0.960409 257.98 5.21446 260.22 7.95146C260.325 8.07879 260.402 8.22532 260.45 8.3827C260.497 8.54008 260.513 8.70524 260.496 8.86871C260.48 9.03219 260.431 9.1908 260.353 9.33548C260.275 9.48016 260.169 9.6081 260.041 9.71196C259.914 9.81582 259.767 9.89358 259.609 9.94081C259.452 9.98804 259.286 10.0038 259.122 9.98722C258.958 9.97063 258.799 9.922 258.655 9.84411C258.51 9.76622 258.381 9.6606 258.277 9.53327C256.334 7.1564 251.149 1.77659 244.953 3.14232C241.499 3.90691 239.306 6.37519 236.98 8.9903C235.72 10.4087 234.418 11.8741 232.891 13.0598C224.333 19.7084 218.675 13.805 214.134 9.05678C212.352 7.19518 210.669 5.43885 208.859 4.26981C202.239 0.000866694 197.889 4.36123 193.278 8.97922C191.612 10.6414 189.905 12.3561 188.12 13.564C185.461 15.3591 183.126 16.0849 181.036 16.0849Z" fill="#C4CDC9"/>
<path d="M181.036 36.0638C176.35 36.0638 172.908 32.4043 169.757 29.0496C168.219 27.4151 166.767 25.8721 165.199 24.7141C158.77 19.9659 154.706 23.6614 149.565 28.3432C145.537 32.0082 140.959 36.1636 134.852 35.2466C130.308 34.5651 126.76 31.3821 123.332 28.3044C117.844 23.3844 113.513 19.4895 106.487 26.3652C105.632 27.2372 104.821 28.1516 104.058 29.105C102.057 31.5234 99.9888 34.0194 96.6632 35.2521C91.9163 37.0057 86.9278 35.5292 82.6251 31.0968C81.8867 30.3377 81.1899 29.5261 80.4959 28.7144C78.3362 26.1935 76.2959 23.811 72.9147 22.9634C69.2699 22.0464 66.0109 23.1711 62.3494 26.6062C61.5888 27.3237 60.8282 28.1409 60.0287 29.0052C57.1251 32.1412 53.83 35.6954 48.7222 35.9502C43.1314 36.2273 39.4643 32.1772 36.5079 28.9194C35.9083 28.2601 35.3226 27.6174 34.748 27.0356C29.7679 22.0132 23.9883 21.5727 18.8833 25.8306C17.9228 26.6312 16.9401 27.6035 15.9213 28.634C12.3598 32.2021 7.91543 36.6428 1.5307 35.4572C1.36367 35.4332 1.20323 35.3757 1.05901 35.2883C0.914776 35.2009 0.789754 35.0852 0.69144 34.9484C0.593127 34.8115 0.523547 34.6562 0.486902 34.4918C0.450258 34.3274 0.447297 34.1573 0.478194 33.9918C0.50909 33.8262 0.573217 33.6686 0.666703 33.5284C0.760189 33.3882 0.881108 33.2683 1.0222 33.1759C1.1633 33.0835 1.32164 33.0205 1.48774 32.9908C1.65383 32.961 1.82426 32.9651 1.98874 33.0027C7.08542 33.9446 10.6748 30.3488 14.1475 26.8722C15.219 25.8001 16.2295 24.7862 17.276 23.9135C23.3193 18.8745 30.695 19.3953 36.5274 25.2793C37.127 25.886 37.7349 26.5508 38.3595 27.2406C41.2298 30.4292 44.2279 33.7036 48.5889 33.4764C52.6807 33.2714 55.4789 30.2519 58.1827 27.332C59.0155 26.4317 59.8038 25.584 60.6311 24.8083C63.3293 22.2736 67.6043 19.0795 73.5171 20.5616C77.6811 21.6059 80.074 24.4039 82.4002 27.1132C83.0637 27.8861 83.7216 28.6562 84.4239 29.3792C86.9501 31.9805 90.9697 34.7036 95.8054 32.9196C98.5009 31.9223 100.269 29.7865 102.143 27.5232C102.959 26.5026 103.828 25.5252 104.747 24.595C113.441 16.0627 119.595 21.5782 125.011 26.4428C128.168 29.274 131.429 32.2021 135.23 32.7728C140.171 33.5152 143.921 30.1023 147.888 26.4954C152.918 21.9162 158.62 16.7358 166.698 22.7002C168.45 23.9966 170.049 25.6948 171.592 27.3376C176.034 32.047 179.845 36.1248 186.735 31.4597C188.32 30.3848 189.877 28.828 191.524 27.1769C196.154 22.5395 201.911 16.7663 210.236 22.1378C212.296 23.4648 214.162 25.4122 215.963 27.296C220.596 32.1356 224.596 36.3187 231.373 31.0525C232.716 30.0081 233.888 28.6922 235.126 27.296C237.624 24.5008 240.184 21.6059 244.431 20.6668C251.948 19.0047 257.986 25.1795 260.226 27.9165C260.436 28.1737 260.535 28.5036 260.502 28.8338C260.468 29.164 260.305 29.4673 260.047 29.677C259.789 29.8868 259.459 29.9858 259.128 29.9523C258.797 29.9188 258.493 29.7555 258.283 29.4984C256.34 27.1187 251.143 21.7417 244.958 23.1074C241.505 23.872 239.309 26.3403 236.986 28.9554C235.725 30.3738 234.423 31.8392 232.897 33.0249C224.338 39.6735 218.681 33.7701 214.139 29.0219C212.357 27.1603 210.675 25.4039 208.865 24.2349C202.244 19.9687 197.894 24.3263 193.284 28.9443C191.618 30.6065 189.911 32.3212 188.126 33.5291C185.461 35.338 183.126 36.0638 181.036 36.0638Z" fill="#C4CDC9"/>
<path d="M181.036 56.0439C176.35 56.0439 172.908 52.3817 169.758 49.0269C168.22 47.3925 166.768 45.8494 165.199 44.6915C158.77 39.9433 154.709 43.6388 149.565 48.3205C145.537 51.9855 140.96 56.1409 134.852 55.2212C130.308 54.5425 126.761 51.3595 123.332 48.2956C117.844 43.3756 113.514 39.4807 106.488 46.373C105.631 47.2437 104.82 48.1582 104.059 49.1128C102.057 51.5284 99.9891 54.0244 96.6635 55.2572C91.9138 57.0191 86.9282 55.5342 82.6254 51.1018C81.887 50.3428 81.1903 49.5311 80.4963 48.7194C78.3366 46.1985 76.2962 43.8161 72.9151 42.9684C69.2702 42.0515 66.014 43.1762 62.3498 46.6113C61.5891 47.326 60.8285 48.146 60.0291 49.0103C57.1226 52.1462 53.8303 55.7004 48.7225 55.9553C43.1317 56.2489 39.4646 52.1822 36.5082 48.9244C35.9086 48.2651 35.3229 47.6224 34.7483 47.0406C29.7682 42.0182 23.9886 41.5777 18.8836 45.8356C17.9231 46.6362 16.9405 47.6113 15.9217 48.6419C12.3573 52.2072 7.92965 56.6534 1.53104 55.465C1.36937 55.4349 1.2152 55.3734 1.07734 55.284C0.939477 55.1945 0.820652 55.0788 0.727596 54.9435C0.63454 54.8082 0.569105 54.6559 0.53502 54.4954C0.500935 54.3348 0.498846 54.1692 0.528921 54.0078C0.558996 53.8465 0.620624 53.6926 0.71028 53.555C0.799937 53.4175 0.915894 53.2989 1.05148 53.206C1.18707 53.1131 1.33963 53.0478 1.50051 53.0138C1.66139 52.9798 1.82741 52.9777 1.98908 53.0078C7.07743 53.9441 10.6751 50.3539 14.1478 46.8772C15.2194 45.8051 16.2298 44.7912 17.2791 43.9186C23.3169 38.8768 30.6982 39.4003 36.5277 45.2843C37.1273 45.891 37.7352 46.5559 38.3598 47.2429C41.2413 50.4093 44.2393 53.6698 48.6004 53.4593C52.6894 53.2543 55.4903 50.2347 58.1941 47.3149C59.0269 46.4146 59.8153 45.5669 60.6425 44.7912C63.3436 42.2564 67.6158 39.0624 73.5286 40.5444C77.6926 41.5888 80.0854 44.3868 82.4117 47.0961C83.0724 47.869 83.733 48.6418 84.4326 49.3621C86.9615 51.9634 90.9783 54.6865 95.814 52.9025C98.5095 51.9052 100.278 49.7693 102.152 47.5088C102.968 46.4873 103.837 45.509 104.755 44.5779C113.453 36.0456 119.604 41.5611 125.02 46.4257C128.174 49.2568 131.438 52.185 135.238 52.7529C140.182 53.4981 143.933 50.0879 147.897 46.4783C152.927 41.8991 158.629 36.7187 166.707 42.6831C168.458 43.9768 170.057 45.6777 171.601 47.3204C176.042 52.0299 179.859 56.1049 186.744 51.4426C188.329 50.3677 189.886 48.8108 191.532 47.1625C196.163 42.5252 201.92 36.7492 210.245 42.1179C212.305 43.4477 214.17 45.3951 215.972 47.2789C220.605 52.1185 224.605 56.3043 231.381 51.0353C232.725 49.991 233.896 48.6723 235.134 47.2789C237.633 44.4837 240.192 41.5888 244.439 40.6497C251.968 38.9876 257.994 45.1652 260.235 47.8994C260.445 48.1566 260.544 48.4865 260.511 48.8167C260.477 49.1468 260.313 49.4502 260.056 49.6599C259.798 49.8697 259.467 49.9687 259.136 49.9352C258.806 49.9017 258.502 49.7384 258.291 49.4812C256.348 47.1016 251.149 41.7246 244.967 43.0875C241.514 43.8549 239.318 46.3232 236.994 48.9383C235.734 50.3539 234.432 51.8221 232.905 53.0078C224.347 59.6563 218.69 53.7529 214.148 49.0048C212.366 47.1432 210.684 45.3841 208.874 44.2178C202.253 39.9488 197.903 44.3092 193.292 48.9272C191.627 50.5893 189.919 52.3041 188.134 53.5119C185.461 55.3154 183.127 56.0439 181.036 56.0439Z" fill="#C4CDC9"/>
<path d="M181.037 76.0217C176.351 76.0217 172.909 72.3622 169.758 69.0074C168.22 67.373 166.769 65.83 165.2 64.6692C158.771 59.9238 154.71 63.6193 149.566 68.301C145.538 71.9661 140.96 76.1186 134.853 75.2017C130.309 74.523 126.761 71.34 123.333 68.2761C117.845 63.3561 113.514 59.4612 106.488 66.3369C105.633 67.2092 104.822 68.1246 104.059 69.0795C102.058 71.4951 99.9899 73.9911 96.6643 75.2211C91.9202 76.9802 86.9317 75.4981 82.6262 71.0657C81.8878 70.3067 81.1911 69.495 80.4971 68.6833C78.3374 66.1624 76.297 63.78 72.9159 62.9323C69.271 62.0153 66.0121 63.1401 62.3506 66.5752C61.5899 67.2899 60.8293 68.1099 60.0299 68.9742C57.1234 72.1101 53.8311 75.6643 48.7233 75.9192C43.1714 76.1962 39.4654 72.1461 36.509 68.8855C35.9094 68.2262 35.3265 67.5863 34.7519 67.0046C29.7745 61.9821 23.9922 61.5389 18.8872 65.7995C17.9267 66.6001 16.944 67.5724 15.9253 68.603C12.3637 72.171 7.93322 76.6145 1.53461 75.4261C1.36757 75.4021 1.20714 75.3447 1.06291 75.2572C0.918682 75.1698 0.79366 75.0542 0.695347 74.9173C0.597033 74.7804 0.527453 74.6251 0.490809 74.4607C0.454164 74.2963 0.451204 74.1263 0.4821 73.9607C0.512996 73.7951 0.577123 73.6375 0.67061 73.4973C0.764096 73.3571 0.885014 73.2372 1.02611 73.1448C1.16721 73.0524 1.32554 72.9895 1.49164 72.9597C1.65774 72.93 1.82816 72.934 1.99265 72.9717C7.08655 73.9191 10.6787 70.3178 14.1514 66.8383C15.2229 65.769 16.2334 64.7551 17.2799 63.8825C23.3232 58.8406 30.7017 59.3642 36.5313 65.2482C37.1309 65.8521 37.7388 66.5198 38.3634 67.2068C41.2421 70.3704 44.1929 73.6587 48.604 73.4232C52.693 73.2182 55.4911 70.1986 58.1977 67.2788C59.0305 66.3785 59.8189 65.5308 60.6461 64.7551C63.3443 62.2203 67.611 59.0235 73.5322 60.5056C77.6961 61.5527 80.089 64.3507 82.4153 67.0599C83.076 67.8328 83.7366 68.6057 84.4361 69.326C86.9623 71.9273 90.9763 74.6532 95.8176 72.8664C98.5131 71.8691 100.281 69.7332 102.155 67.4727C102.971 66.4512 103.841 65.4729 104.759 64.5418C113.456 56.0095 119.608 61.525 125.024 66.3896C128.177 69.2207 131.442 72.1489 135.242 72.7168C140.186 73.4565 143.936 70.049 147.9 66.4394C152.93 61.863 158.632 56.6826 166.71 62.647C168.462 63.9407 170.061 65.6416 171.604 67.2843C176.046 71.9937 179.863 76.0688 186.747 71.4065C188.332 70.3316 189.89 68.7747 191.536 67.1237C196.166 62.4891 201.921 56.7131 210.249 62.0846C212.308 63.4115 214.174 65.359 215.975 67.2428C220.609 72.0824 224.609 76.2655 231.385 70.9992C232.728 69.9549 233.9 68.6362 235.138 67.2428C237.636 64.4448 240.196 61.5527 244.44 60.6136C251.985 58.9515 257.998 65.1291 260.238 67.8633C260.448 68.1205 260.548 68.4504 260.514 68.7806C260.48 69.1107 260.317 69.414 260.059 69.6238C259.802 69.8336 259.471 69.9326 259.14 69.8991C258.809 69.8656 258.505 69.7023 258.295 69.4451C256.352 67.0683 251.152 61.6885 244.97 63.0514C241.517 63.8188 239.321 66.2871 236.998 68.9022C235.738 70.3178 234.436 71.7832 232.909 72.9717C224.351 79.6202 218.693 73.7168 214.152 68.9686C212.369 67.107 210.687 65.3507 208.877 64.1817C202.257 59.91 197.904 64.2731 193.296 68.8911C191.63 70.5532 189.923 72.268 188.138 73.4758C185.462 75.307 183.127 76.0217 181.037 76.0217Z" fill="#C4CDC9"/>
<path d="M181.036 96.0009C176.35 96.0009 172.908 92.3414 169.757 88.9866C168.219 87.3522 166.768 85.8092 165.199 84.6512C158.77 79.9002 154.706 83.5985 149.565 88.2802C145.537 91.9453 140.959 96.0978 134.852 95.1809C130.308 94.4994 126.76 91.3192 123.332 88.2553C117.844 83.3353 113.513 79.4404 106.487 86.3161C105.631 87.1877 104.82 88.1031 104.058 89.0587C102.057 91.4743 99.986 93.9703 96.6632 95.203C91.9163 96.9594 86.9278 95.4801 82.6251 91.0477C81.8867 90.2886 81.1899 89.477 80.4959 88.6653C78.3362 86.1444 76.2959 83.762 72.9147 82.9143C69.2699 82.0001 66.0109 83.122 62.3494 86.5571C61.5888 87.2718 60.8282 88.0918 60.0287 88.9562C57.1223 92.0921 53.83 95.6435 48.7222 95.9011C43.1314 96.1782 39.4643 92.1281 36.5079 88.8703C35.9055 88.2082 35.3226 87.5683 34.748 86.9865C29.7706 81.9641 23.9883 81.5208 18.8833 85.7815C17.9228 86.5821 16.9401 87.5544 15.9214 88.5849C12.3598 92.153 7.92931 96.5937 1.5307 95.4081C1.36367 95.3841 1.20323 95.3266 1.05901 95.2392C0.914776 95.1518 0.789754 95.0361 0.69144 94.8993C0.593127 94.7624 0.523547 94.6071 0.486902 94.4427C0.450258 94.2783 0.447297 94.1082 0.478194 93.9427C0.50909 93.7771 0.573217 93.6195 0.666703 93.4793C0.760189 93.3391 0.881108 93.2192 1.0222 93.1268C1.1633 93.0344 1.32164 92.9714 1.48774 92.9417C1.65384 92.9119 1.82426 92.916 1.98874 92.9536C7.08265 93.8983 10.6748 90.2997 14.1475 86.8203C15.219 85.7482 16.2295 84.7371 17.276 83.8617C23.3193 78.8226 30.6978 79.3462 36.5274 85.2302C37.127 85.8341 37.7349 86.5017 38.3595 87.1887C41.241 90.3551 44.239 93.6406 48.6 93.4052C52.689 93.2002 55.4872 90.1806 58.1938 87.2608C59.0266 86.3604 59.815 85.51 60.6422 84.7371C63.3432 82.2023 67.6154 79.0054 73.5283 80.4903C77.6922 81.5319 80.0851 84.3326 82.4114 87.0419C83.072 87.8148 83.7327 88.5849 84.4322 89.308C86.9584 91.9092 90.978 94.6324 95.8137 92.8483C98.5064 91.8511 100.277 89.7152 102.151 87.4547C102.967 86.4326 103.836 85.4543 104.755 84.5238C113.452 75.9914 119.604 81.507 125.02 86.3715C128.173 89.2027 131.438 92.1309 135.238 92.6988C140.182 93.4412 143.93 90.031 147.896 86.4214C152.926 81.8477 158.628 76.659 166.706 82.6289C168.458 83.9226 170.057 85.6235 171.6 87.2663C176.042 91.9757 179.859 96.0507 186.743 91.3884C188.328 90.3136 189.886 88.7567 191.532 87.1056C196.162 82.4683 201.92 76.6951 210.245 82.0638C212.305 83.3935 214.17 85.341 215.972 87.2248C220.605 92.0644 224.608 96.2474 231.381 90.9812C232.725 89.9368 233.896 88.6182 235.134 87.2248C237.632 84.4296 240.192 81.5347 244.436 80.5956C251.965 78.9334 257.994 85.1083 260.234 87.8453C260.445 88.1024 260.544 88.4324 260.51 88.7625C260.477 89.0927 260.313 89.396 260.055 89.6058C259.798 89.8155 259.467 89.9145 259.136 89.881C258.805 89.8475 258.501 89.6842 258.291 89.4271C256.348 87.0502 251.162 81.6704 244.967 83.0334C241.513 83.8007 239.317 86.269 236.994 88.8841C235.734 90.2997 234.432 91.7652 232.905 92.9536C224.347 99.6022 218.689 93.6988 214.148 88.9506C212.366 87.089 210.683 85.3327 208.873 84.1636C202.253 79.8975 197.903 84.2523 193.292 88.873C191.626 90.5352 189.919 92.25 188.134 93.4578C185.461 95.2723 183.126 96.0009 181.036 96.0009Z" fill="#C4CDC9"/>
</g>
<defs>
<clipPath id="clip0_4_7819">
<rect width="260" height="96" fill="white" transform="translate(0.5)"/>
</clipPath>
</defs>
</svg>
